<svg xmlns="http://www.w3.org/2000/svg" enable-background="new 0 0 512 512" height="512" width="512"><rect id="backgroundrect" width="100%" height="100%" x="0" y="0" fill="none" stroke="none"/><g class="currentLayer" style=""><title>Layer 1</title><path d="m464.339 47.341-9.315-35.738c-3.022-11.594-17.492-15.525-25.965-7.052l-39.936 39.936c-3.947 3.947-5.468 9.712-3.981 15.093l14.499 52.459z" fill="#fabb18" id="svg_2" class="" fill-opacity="1"/><path d="m464.339 47.341 35.738 9.315c11.594 3.022 15.525 17.492 7.052 25.965l-39.936 39.936c-3.947 3.947-9.712 5.468-15.093 3.981l-52.459-14.499z" fill="#fabb18" id="svg_3" class="" fill-opacity="1"/><path d="m507.129 82.616-39.938 39.938c-3.943 3.954-9.709 5.467-15.094 3.985l-20.438-5.642c4.396.144 8.741-1.524 11.933-4.716l41.585-41.575c6.188-6.188 6.013-15.454 1.194-21.519l13.704 3.573c11.594 3.017 15.527 17.493 7.054 25.956z" fill="#ffb600" id="svg_4" class="" fill-opacity="1"/><circle cx="221.74200439453125" cy="290.5769958496094" fill="#fabb18" r="221.42300415039062" id="svg_5" class="" fill-opacity="1"/><path d="m443.17 290.574c0 122.295-99.14 221.425-221.425 221.425-52.952 0-101.559-18.584-139.665-49.606 35.315 23.825 77.858 37.735 123.665 37.735 122.295 0 221.425-99.14 221.425-221.425 0-69.333-31.866-131.232-81.76-171.829 58.975 39.783 97.76 107.211 97.76 183.7z" fill="#ffb600" id="svg_6" class="" fill-opacity="1"/><circle cx="221.74200439453125" cy="290.5769958496094" fill="#212020" r="162.42799377441406" id="svg_7" class="" fill-opacity="1"/><path d="m384.174 290.574c0 89.709-72.731 162.429-162.429 162.429-37.704 0-72.411-12.849-99.963-34.399 24.391 14.651 52.952 23.073 83.49 23.073 89.698 0 162.429-72.72 162.429-162.429 0-51.995-24.432-98.285-62.445-128.02 47.279 28.407 78.918 80.185 78.918 139.346z" fill="#000000" id="svg_8" class="" fill-opacity="1"/><circle cx="221.74200439453125" cy="290.5769958496094" fill="#fabb18" r="103.13099670410156" id="svg_9" class="" fill-opacity="1"/><path d="m324.87 290.574c0 56.957-46.167 103.135-103.124 103.135-25.503 0-48.844-9.256-66.841-24.597 14.291 7.495 30.548 11.727 47.794 11.727 56.957 0 103.124-46.177 103.124-103.135 0-31.454-14.085-59.624-36.283-78.527 32.895 17.225 55.33 51.685 55.33 91.397z" fill="#fcb605" id="svg_10" class="" fill-opacity="1"/><circle cx="221.74200439453125" cy="290.5769958496094" fill="#f9f7f8" r="46.823001861572266" id="svg_11" class=""/><path d="m268.561 290.574c0 25.863-20.963 46.826-46.816 46.826-14.847 0-28.067-6.909-36.643-17.678 6.033 2.842 12.777 4.427 19.882 4.427 25.863 0 46.826-20.963 46.826-46.816 0-11.017-3.81-21.148-10.183-29.148 15.917 7.475 26.934 23.65 26.934 42.389z" fill="#efedef" id="svg_12" class=""/><g id="svg_13" class="" fill="#000000" fill-opacity="1"><path d="m220.399 298.641c-1.919 0-3.839-.732-5.303-2.197-2.929-2.929-2.929-7.678 0-10.606l243.869-243.87c2.93-2.929 7.678-2.929 10.607 0s2.929 7.678 0 10.606l-243.87 243.87c-1.464 1.464-3.384 2.197-5.303 2.197z" fill="#000000" id="svg_14" fill-opacity="1"/></g><circle cx="72.85299682617188" cy="439.46600341796875" fill="#000000" r="72.53399658203125" id="svg_15" class="" fill-opacity="1"/><path d="m145.39 439.464c0 40.062-32.473 72.535-72.535 72.535-17.606 0-33.74-6.26-46.301-16.69 9.102 4.108 19.192 6.394 29.827 6.394 40.062 0 72.535-32.474 72.535-72.535 0-22.466-10.214-42.543-26.234-55.845 25.185 11.377 42.708 36.705 42.708 66.141z" fill="#141414" id="svg_16" class="" fill-opacity="1"/><g id="svg_17" class=""><path d="m110.398 410.078c-5.679-5.239-14.53-4.883-19.769.796l-24.1 26.123c-1.038 1.125-2.816 1.125-3.854 0l-7.538-8.171c-5.252-5.693-14.125-6.051-19.818-.799-5.673 5.234-6.051 14.068-.845 19.767l17.653 19.324c6.606 7.231 17.986 7.259 24.627.06l34.44-37.332c5.24-5.677 4.883-14.528-.796-19.768z" fill="#f9f7f8" id="svg_18"/><path d="m111.198 429.847-34.44 37.333c-6.641 7.197-18.028 7.166-24.628-.062l-1.112-1.215c4.458-.021 8.906-1.812 12.201-5.385l34.44-37.333c4.324-4.685 4.839-11.521 1.688-16.721 3.892-.443 7.949.752 11.048 3.614 5.683 5.242 6.043 14.086.803 19.769z" fill="#efedef" id="svg_19"/></g></g></svg>