<svg id="Capa_1" enable-background="new 0 0 512 512" height="512" viewBox="0 0 512 512" width="512" xmlns="http://www.w3.org/2000/svg" xmlns:xlink="http://www.w3.org/1999/xlink"><linearGradient id="SVGID_1_" gradientUnits="userSpaceOnUse" x1="74.981" x2="437.019" y1="74.981" y2="437.019"><stop offset="0" stop-color="#ff4f75"/><stop offset="1" stop-color="#f71e78"/></linearGradient><linearGradient id="SVGID_2_" gradientUnits="userSpaceOnUse" x1="67.5" x2="444.5" y1="256" y2="256"><stop offset="0" stop-color="#45c5ff"/><stop offset="1" stop-color="#0ca8ed"/></linearGradient><g><circle cx="256" cy="256" fill="url(#SVGID_1_)" r="256"/><path d="m408.104 150.074c-20.069 0-36.396 16.327-36.396 36.396v22.09c0 7.888-6.418 14.306-14.306 14.306s-14.306-6.418-14.306-14.306v-104.664c0-20.069-16.326-36.396-36.395-36.396s-36.396 16.327-36.396 36.396v104.663c0 7.888-6.418 14.306-14.306 14.306s-14.306-6.418-14.306-14.306v-71.529c0-20.069-16.327-36.396-36.395-36.396s-36.396 16.327-36.396 36.396v71.529c0 7.888-6.418 14.306-14.306 14.306s-14.306-6.418-14.306-14.306v-22.09c0-20.069-16.327-36.396-36.395-36.396-20.069 0-36.396 16.327-36.396 36.396v139.061c0 20.069 16.327 36.396 36.396 36.396 20.068 0 36.395-16.327 36.395-36.396v-22.09c0-7.888 6.417-14.306 14.306-14.306 7.888 0 14.306 6.418 14.306 14.306v104.663c0 20.069 16.327 36.396 36.395 36.396 20.069 0 36.396-16.327 36.396-36.396v-104.662c0-7.888 6.418-14.306 14.306-14.306s14.306 6.418 14.306 14.306v71.529c0 20.068 16.327 36.396 36.396 36.396s36.395-16.327 36.395-36.396v-71.529c0-7.888 6.418-14.306 14.306-14.306s14.306 6.418 14.306 14.306v22.09c0 20.069 16.327 36.396 36.396 36.396s36.396-16.327 36.396-36.396v-139.062c0-20.068-16.327-36.395-36.396-36.395z" fill="url(#SVGID_2_)"/></g></svg>