<svg xmlns="http://www.w3.org/2000/svg" xmlns:xlink="http://www.w3.org/1999/xlink" version="1.1" style="enable-background:new 0 0 510 510;" xml:space="preserve" width="510" height="510"><rect id="backgroundrect" width="100%" height="100%" x="0" y="0" fill="none" stroke="none"/>


<g class="currentLayer" style=""><title>Layer 1</title><g id="svg_1" class="" fill-opacity="1" fill="#FABB18">
	<g id="svg_2" fill="#FABB18">
		<path d="M255.888,320.081c-2.327-0.141-4.021,1.733-4.052,3.942c-0.054,4.161-1.725,8.088-4.684,11.055    c-6.254,6.23-16.403,6.223-22.625,0c-6.23-6.238-6.23-16.379,0.008-22.617c1.562-1.56,1.562-4.089,0-5.651    c-1.561-1.562-4.091-1.562-5.652,0c-9.353,9.353-9.361,24.576-0.008,33.921c4.676,4.676,10.812,7.019,16.956,7.011    c6.144,0,12.296-2.335,16.973-7.019c4.442-4.45,6.94-10.336,7.026-16.59C259.862,321.924,258.097,320.112,255.888,320.081z" id="svg_3" fill="#FABB18"/>
	</g>
</g><g id="svg_4" class="" fill-opacity="1" fill="#FABB18">
	<g id="svg_5" fill="#FABB18">
		<path d="M227.79,203.134c-4.38-3.888-10.04-6.027-15.926-6.027c-13.225,0-23.983,10.761-23.983,23.99    c0,13.222,10.758,23.976,23.983,23.976c2.209,0,3.997-1.788,3.997-3.998c0-2.21-1.788-3.997-3.997-3.997    c-8.815,0-15.989-7.17-15.989-15.981c0-8.821,7.175-15.996,15.989-15.996c3.934,0,7.705,1.425,10.617,4.013    c1.656,1.456,4.177,1.315,5.645-0.336C229.594,207.127,229.437,204.598,227.79,203.134z" id="svg_6" fill="#FABB18"/>
	</g>
</g><g id="svg_7" class="" fill-opacity="1" fill="#FABB18">
	<g id="svg_8" fill="#FABB18">
		<path d="M191.878,259.813c-8.814,0-15.989,7.175-15.989,15.996c0,6.363,3.763,12.108,9.587,14.653    c0.516,0.219,1.062,0.328,1.593,0.328c1.538,0,3.014-0.898,3.66-2.404c0.883-2.022-0.039-4.372-2.068-5.262    c-2.904-1.264-4.778-4.137-4.778-7.315c0-4.411,3.584-8.002,7.995-8.002c2.209,0,3.997-1.788,3.997-3.997    C195.875,261.601,194.087,259.813,191.878,259.813z" id="svg_9" fill="#FABB18"/>
	</g>
</g><g id="svg_10" class="" fill-opacity="1" fill="#FABB18">
	<g id="svg_11" fill="#FABB18">
		<path d="M196.07,228.272c-12.335-2.565-24.17,7.139-24.178,19.564c0,11.012,8.963,19.97,19.986,19.97    c2.209,0,3.998-1.788,3.998-3.997c0-2.209-1.788-3.997-3.997-3.997c-6.613,0-11.992-5.372-11.992-11.976    c0-7.46,7.12-13.272,14.544-11.742c2.194,0.461,4.278-0.932,4.731-3.095C199.615,230.84,198.225,228.721,196.07,228.272z" id="svg_12" fill="#FABB18"/>
	</g>
</g><g id="svg_13" class="" fill-opacity="1" fill="#FABB18">
	<g id="svg_14" fill="#FABB18">
		<path d="M239.843,179.869c-11.023,0-19.985,8.974-19.985,20.001c0,11.012,8.962,19.97,19.985,19.97    c2.21,0,3.998-1.787,3.997-3.997c0-2.209-1.788-3.997-3.998-3.997c-6.612,0-11.991-5.372-11.991-11.976    c0-6.62,5.379-12.007,11.991-12.007c6.613,0,11.992,5.387,11.992,12.007c0,2.209,1.788,3.997,3.998,3.997    c2.209,0,3.997-1.788,3.997-3.997C259.829,188.843,250.866,179.869,239.843,179.869z" id="svg_15" fill="#FABB18"/>
	</g>
</g><g id="svg_16" class="" fill-opacity="1" fill="#FABB18">
	<g id="svg_17" fill="#FABB18">
		<path d="M234.473,277.175c-6.057-6.058-14.091-9.384-22.616-9.384c0,0,0,0-0.008,0c-8.526,0-16.551,3.326-22.594,9.376    c-12.475,12.475-12.483,32.765-0.016,45.233c6.043,6.035,14.264,9.376,22.68,9.376c1.631,0,3.263-0.125,4.887-0.374    c2.178-0.343,3.669-2.389,3.334-4.567c-0.336-2.178-2.42-3.63-4.567-3.334c-7.526,1.195-15.271-1.35-20.681-6.752    c-9.352-9.346-9.344-24.57,0.016-33.93c4.536-4.535,10.555-7.034,16.941-7.034h0.008c6.393,0,12.421,2.499,16.964,7.042    c1.561,1.562,4.091,1.562,5.652,0C236.035,281.266,236.035,278.737,234.473,277.175z" id="svg_18" fill="#FABB18"/>
	</g>
</g><g id="svg_19" class="" fill-opacity="1" fill="#FABB18">
	<g id="svg_20" fill="#FABB18">
		<path d="M292.787,306.809c-1.561-1.562-4.09-1.561-5.652,0c-1.562,1.561-1.562,4.09,0,5.651c6.229,6.238,6.229,16.379,0,22.617    c-6.215,6.238-16.363,6.238-22.625,0.008c-2.955-2.974-4.625-6.901-4.68-11.062c-0.039-2.209-1.812-4.02-4.052-3.942    c-2.21,0.031-3.974,1.843-3.943,4.052c0.086,6.254,2.585,12.14,7.026,16.598c4.677,4.676,10.817,7.019,16.969,7.019    c6.136,0,12.288-2.343,16.957-7.02C302.14,331.385,302.14,316.162,292.787,306.809z" id="svg_21" fill="#FABB18"/>
	</g>
</g><g id="svg_22" class="" fill-opacity="1" fill="#FABB18">
	<g id="svg_23" fill="#FABB18">
		<path d="M299.796,197.108c-5.886,0-11.538,2.139-15.926,6.027c-1.639,1.464-1.795,3.993-0.328,5.644    c1.452,1.651,3.983,1.792,5.637,0.336c2.92-2.588,6.683-4.013,10.617-4.013c8.822,0,15.989,7.175,15.989,15.996    c0,8.81-7.167,15.981-15.989,15.981c-2.201,0-3.996,1.787-3.996,3.997c0,2.209,1.795,3.997,3.996,3.997    c13.226,0,23.984-10.754,23.983-23.975C323.779,207.87,313.022,197.108,299.796,197.108z" id="svg_24" fill="#FABB18"/>
	</g>
</g><g id="svg_25" class="" fill-opacity="1" fill="#FABB18">
	<g id="svg_26" fill="#FABB18">
		<path d="M319.783,259.813c-2.201,0-3.997,1.788-3.997,3.997c0,2.209,1.796,3.997,3.997,3.997c4.419,0,7.994,3.591,7.994,8.002    c0,3.177-1.873,6.05-4.777,7.315c-2.031,0.89-2.952,3.241-2.062,5.262c0.64,1.507,2.124,2.404,3.653,2.404    c0.532,0,1.078-0.11,1.593-0.328c5.824-2.545,9.587-8.29,9.587-14.653C335.771,266.988,328.605,259.813,319.783,259.813z" id="svg_27" fill="#FABB18"/>
	</g>
</g><g id="svg_28" class="" fill-opacity="1" fill="#FABB18">
	<g id="svg_29" fill="#FABB18">
		<path d="M315.599,228.272c-2.155,0.449-3.544,2.568-3.092,4.727c0.437,2.162,2.545,3.556,4.731,3.095    c7.432-1.553,14.536,4.278,14.536,11.742c0,6.605-5.371,11.976-11.991,11.976c-2.201,0-3.997,1.788-3.997,3.997    c0,2.209,1.796,3.997,3.997,3.997c11.023,0,19.985-8.958,19.986-19.97C339.769,235.412,327.965,225.708,315.599,228.272z" id="svg_30" fill="#FABB18"/>
	</g>
</g><g id="svg_31" class="" fill-opacity="1" fill="#FABB18">
	<g id="svg_32" fill="#FABB18">
		<path d="M271.817,179.869c-11.02,0-19.982,8.974-19.982,20.001c0,2.209,1.788,3.997,3.998,3.997c2.209,0,3.997-1.788,3.997-3.997    c0-6.62,5.383-12.007,11.987-12.007c6.62,0,11.991,5.387,11.991,12.007c0,6.605-5.371,11.976-11.991,11.976    c-2.202,0-3.997,1.788-3.997,3.997c0,2.209,1.795,3.997,3.997,3.997c11.023,0,19.985-8.958,19.985-19.97    C291.802,188.843,282.84,179.869,271.817,179.869z" id="svg_33" fill="#FABB18"/>
	</g>
</g><g id="svg_34" class="" fill-opacity="1" fill="#FABB18">
	<g id="svg_35" fill="#FABB18">
		<path d="M322.406,277.167c-6.043-6.05-14.069-9.376-22.594-9.376c-8.524,0-16.565,3.326-22.624,9.384    c-1.562,1.561-1.561,4.09,0,5.652c1.561,1.562,4.09,1.562,5.652,0c4.544-4.543,10.571-7.042,16.972-7.042    c6.386,0,12.414,2.499,16.941,7.034c9.369,9.36,9.369,24.584,0.016,33.922c-5.402,5.41-13.131,7.955-20.673,6.76    c-2.154-0.335-4.231,1.148-4.575,3.334c-0.327,2.177,1.156,4.223,3.342,4.567c1.624,0.249,3.248,0.374,4.871,0.374    c8.432,0,16.644-3.341,22.688-9.376C334.897,309.933,334.882,289.643,322.406,277.167z" id="svg_36" fill="#FABB18"/>
	</g>
</g><g id="svg_37" class="" fill-opacity="1" fill="#FABB18">
	<g id="svg_38" fill="#FABB18">
		<path d="M323.764,403.71H187.865c-2.209,0-3.997,1.787-3.997,3.997v55.96c0,1.061,0.421,2.076,1.171,2.826l15.989,15.988    c0.749,0.75,1.764,1.172,2.826,1.172h103.922c1.061,0,2.076-0.422,2.826-1.172l15.988-15.988c0.749-0.75,1.171-1.764,1.171-2.826    v-55.96C327.761,405.497,325.966,403.71,323.764,403.71z M319.767,462.012l-13.646,13.646H205.509l-13.647-13.646v-50.308h127.905    V462.012z" id="svg_39" fill="#FABB18"/>
	</g>
</g><g id="svg_40" class="" transform="rotate(1.5517818927764893 255.76925659180088,430.9229125976561) " fill-opacity="1" fill="#FABB18">
	<g id="svg_41" fill="#FABB18">
		<path d="M320.132497592247,424.9395261981214 l-129.08581788116567,5.9837756282600845 c-1.8706734603400426,0.09356666919345895 -3.3104375865626827,1.4963181737417952 -3.210996970997129,3.1498283517286008 c0.09264125723628565,1.5958731097636356 1.592749688631186,2.8339472765314837 3.39033004693159,2.8339472765314837 c0.05949438538110091,0 0.11898877076220173,0 0.17933307593446135,0 l129.08581788116567,-5.9837756282600845 c1.871523380131201,-0.09356666919345895 3.317236944891952,-1.4955696403882475 3.210996970997129,-3.149079818375053 C323.60951945787673,426.12595156349454 322.04396720256267,424.90434513050474 320.132497592247,424.9395261981214 z" id="svg_42" fill="#FABB18"/>
	</g>
</g><g class="" transform="rotate(1.5517818927764893 257.11251831055273,450.92291259765693) " id="svg_43" fill-opacity="1" fill="#FABB18">
	<g id="svg_45" fill="#FABB18">
		<path d="M321.47578219918057,444.9395261981214 l-129.08581788116567,5.9837756282600845 c-1.8706734603400426,0.093566669193459 -3.3104375865626827,1.4963181737417952 -3.210996970997129,3.1498283517286008 c0.09264125723628575,1.5958731097636356 1.5927496886311867,2.833947276531484 3.39033004693159,2.833947276531484 c0.05949438538110091,0 0.11898877076220178,0 0.1793330759344614,0 l129.08581788116567,-5.9837756282600845 c1.871523380131201,-0.093566669193459 3.317236944891952,-1.4955696403882475 3.210996970997129,-3.149079818375053 C324.9528040648103,446.12595156349454 323.38725180949626,444.90434513050474 321.47578219918057,444.9395261981214 z" id="svg_42" fill="#FABB18"/>
	</g>
</g><g id="svg_46" class="" fill-opacity="1" fill="#FABB18">
	<g id="svg_47" fill="#FABB18">
		<path d="M255.817,131.904c-74.939,0-135.903,60.965-135.903,135.903c0,47.201,23.866,90.068,63.954,115.121v24.779    c0,2.209,1.788,3.997,3.997,3.997h135.899c2.202,0,3.997-1.788,3.997-3.997v-24.779c40.081-25.045,63.954-67.912,63.954-115.121    C391.715,192.868,330.744,131.904,255.817,131.904z M321.703,377.275c-1.202,0.719-1.936,2.015-1.936,3.42v23.015H191.864v-23.015    c0-1.405-0.734-2.701-1.936-3.42c-38.832-23.421-62.019-64.345-62.019-109.469c0-70.527,57.381-127.908,127.909-127.908    c70.523,0,127.904,57.381,127.904,127.908C383.722,312.946,360.535,353.862,321.703,377.275z" id="svg_48" fill="#FABB18"/>
	</g>
</g><g id="svg_49" class="" fill-opacity="1" fill="#FABB18">
	<g id="svg_50" fill="#FABB18">
		<path d="M293.599,476.112c-1.952-0.999-4.356-0.219-5.371,1.718c-0.297,0.569-7.542,13.818-32.41,13.818    c-24.842,0-32.103-13.21-32.415-13.811c-0.992-1.952-3.372-2.725-5.348-1.757c-1.975,0.983-2.772,3.387-1.788,5.363    c0.374,0.741,9.446,18.198,39.55,18.198c30.1,0,39.171-17.457,39.547-18.197C296.347,479.484,295.551,477.111,293.599,476.112z" id="svg_51" fill="#FABB18"/>
	</g>
</g><g id="svg_79" class="" fill-opacity="1" fill="#FABB18">
	<g id="svg_80" fill="#FABB18">
		<path d="M255.833,195.874c-2.21,0-3.998,1.788-3.998,3.997v124.208c0,2.209,1.788,3.997,3.998,3.997    c2.209,0,3.997-1.788,3.997-3.997V199.871C259.83,197.662,258.042,195.874,255.833,195.874z" id="svg_81" fill="#FABB18"/>
	</g>
</g><g id="svg_82" class="" fill-opacity="1" fill="#FABB18">
	<g id="svg_83" fill="#FABB18">
		<path d="M267.804,291.79c-5.351,0-8.357-5.715-8.404-5.801c-0.992-1.96-3.389-2.755-5.348-1.772    c-1.975,0.983-2.779,3.373-1.796,5.355c0.203,0.422,5.193,10.212,15.548,10.212c2.201,0,3.997-1.788,3.997-3.997    C271.801,293.577,270.005,291.79,267.804,291.79z" id="svg_84" fill="#FABB18"/>
	</g>
</g><g id="svg_85" class="" fill-opacity="1" fill="#FABB18">
	<g id="svg_86" fill="#FABB18">
		<path d="M257.581,284.232c-1.952-0.983-4.357-0.187-5.364,1.757c-0.031,0.055-3.045,5.801-8.4,5.801    c-2.209,0-3.997,1.787-3.997,3.997c0,2.209,1.788,3.997,3.997,3.997c10.352,0,15.341-9.79,15.543-10.212    C260.345,287.605,259.54,285.231,257.581,284.232z" id="svg_87" fill="#FABB18"/>
	</g>
</g><g id="svg_88" class="" fill-opacity="1" fill="#FABB18">
	<g id="svg_89" fill="#FABB18">
		<path d="M275.799,243.824c-15.306,0-15.946-10.794-15.969-12.027c-0.016-2.19-1.804-3.962-3.997-3.962    c-2.21,0-3.998,1.788-3.998,3.997c0,6.913,5.004,19.986,23.963,19.986c2.202,0,3.997-1.788,3.998-3.997    C279.796,245.612,278,243.824,275.799,243.824z" id="svg_90" fill="#FABB18"/>
	</g>
</g><g id="svg_91" class="" fill-opacity="1" fill="#FABB18">
	<g id="svg_92" fill="#FABB18">
		<path d="M255.825,227.855c-2.296-0.172-3.997,1.744-4.036,3.942c-0.024,1.23-0.664,12.027-15.966,12.027    c-2.209,0-3.997,1.788-3.997,3.997c0,2.209,1.788,3.997,3.997,3.997c18.955,0,23.96-13.073,23.96-19.985    C259.783,229.639,258.018,227.874,255.825,227.855z" id="svg_93" fill="#FABB18"/>
	</g>
</g><g id="svg_94">
</g><g id="svg_95">
</g><g id="svg_96">
</g><g id="svg_97">
</g><g id="svg_98">
</g><g id="svg_99">
</g><g id="svg_100">
</g><g id="svg_101">
</g><g id="svg_102">
</g><g id="svg_103">
</g><g id="svg_104">
</g><g id="svg_105">
</g><g id="svg_106">
</g><g id="svg_107">
</g><g id="svg_108">
</g></g></svg>