<svg id="Capa_1" enable-background="new 0 0 512 512" height="512" viewBox="0 0 512 512" width="512" xmlns="http://www.w3.org/2000/svg"><g><path d="m512 256c0 6.63-.25 13.2-.75 19.7v.01c-12.7 0-22.99 10.29-22.99 22.99v65.09c-8.2 17.65-18.35 34.21-30.19 49.39-127.5 62.35-276.64 62.36-404.14.01-9.08-11.65-17.17-24.11-24.14-37.25-2.12-3.99-4.13-8.04-6.04-12.15 11.26-23.09 7.97-50.62-8.39-70.42l-14.6-17.65c-.05-.55-.09-1.11-.13-1.66-.42-5.96-.63-11.99-.63-18.06 0-46.22 12.25-89.57 33.68-127 44.12-77.07 127.16-129 222.32-129s178.2 51.93 222.32 129c12.98 22.67 22.59 47.52 28.15 73.86 3.46 16.36 5.35 33.28 5.52 50.62.01.84.01 1.68.01 2.52z" fill="#92eaff"/><g><path d="m512 256c0 6.63-.25 13.2-.76 19.71-12.7.01-22.98 10.29-22.98 22.99v65.09c-3.58 7.7-7.54 15.2-11.84 22.46-5.56 9.38-11.69 18.38-18.35 26.93l-.01.01c-127.49 62.34-276.63 62.35-404.12 0h-.01c-6.44-8.27-12.39-16.95-17.79-25.99-4.52-7.56-8.67-15.37-12.39-23.41 11.26-23.09 7.97-50.62-8.39-70.42l-14.6-17.65c-.51-6.51-.76-13.08-.76-19.72 0-46.22 12.25-89.57 33.68-127 44.12 77.07 127.16 129 222.32 129s178.2-51.93 222.32-129c21.43 37.43 33.68 80.78 33.68 127z" fill="#63dbfa"/></g><g><g><g><path d="m211.34 428.55h-144.45c-4.52-4.95-8.84-10.07-12.96-15.36 5.62-11.81 17.67-19.97 31.63-19.97 4.59 0 8.97.89 12.99 2.5 7.77-13.91 22.63-23.32 39.69-23.32 22.16 0 40.6 15.87 44.61 36.86 1.19-.18 2.41-.27 3.65-.27 12.05 0 22.15 8.34 24.84 19.56z" fill="#00a23e"/><path d="m84.713 428.55c0-.061-.004-.121-.004-.182 0-11.12 9.015-20.135 20.135-20.135 2.642 0 5.163.514 7.474 1.439 4.465-7.999 13.008-13.411 22.82-13.411 12.741 0 23.346 9.125 25.651 21.194.687-.098 1.389-.152 2.103-.152 6.927 0 12.731 4.796 14.283 11.247z" fill="#008839"/></g><g><path d="m458.07 413.18c-4.11 5.29-8.44 10.42-12.96 15.37h-144.45c2.69-11.22 12.79-19.56 24.84-19.56 1.24 0 2.46.09 3.65.27 4.01-20.99 22.45-36.86 44.61-36.86 17.06 0 31.92 9.41 39.69 23.32 4.02-1.61 8.4-2.5 12.99-2.5 13.95 0 26 8.16 31.63 19.96z" fill="#00a23e"/><path d="m427.287 428.55c0-.061.005-.121.005-.182 0-11.12-9.015-20.135-20.135-20.135-2.642 0-5.163.514-7.474 1.439-4.465-7.999-13.008-13.411-22.82-13.411-12.741 0-23.346 9.125-25.651 21.194-.687-.098-1.389-.152-2.103-.152-6.928 0-12.731 4.796-14.283 11.247z" fill="#008839"/></g></g><g><path d="m445.11 428.55c-46.82 51.28-114.21 83.45-189.11 83.45s-142.29-32.17-189.11-83.45z" fill="#b6e337"/><path d="m445.11 428.55c-46.66 51.1-113.74 83.22-188.32 83.45v-83.45z" fill="#6cdc2d"/></g><g><g><path d="m85.42 281.41v147.14h-18.52c-2-2.17-3.94-4.38-5.84-6.62v-140.52z" fill="#ec771b"/></g><path d="m73.24 281.41h12.18v147.14h-12.18z" fill="#c55732"/><path d="m61.06 281.41h12.18v101.23h-12.18z" fill="#c55732"/><g><path d="m164.62 318.51c.25 25-20.77 45.45-45.76 45.45h-91.23c-1.31 0-2.6-.06-3.88-.17-12.62-27.11-20.62-56.81-22.99-88.07.14-1.15.17-2.32.1-3.5-.06-.94-.09-1.9-.09-2.86 0-15.21 7.54-28.66 19.1-36.8 5.19-3.66 8.38-9.53 8.38-15.88v-.74c0-24.85 20.14-45 44.99-45 .26 0 .51.01.77.01 12.34.2 23.39 5.47 31.37 13.76 7.97 8.3 12.86 19.63 12.86 31.97 0 6.35 3.19 12.22 8.38 15.88 11.55 8.14 19.1 21.59 19.1 36.8 0 .96-.03 1.92-.09 2.86-.35 5.46 1.64 10.84 5.54 14.67 8.2 8.06 13.33 19.24 13.45 31.62z" fill="#43af3e"/></g><g><g><path d="m164.616 318.51c.25 25-20.77 45.45-45.76 45.45h-67.21c-11.83 0-21.78-20.45-21.66-45.45.06-12.38 2.48-23.56 6.37-31.62 1.84-3.83 2.78-9.21 2.62-14.67-.03-.94-.04-1.9-.04-2.86 0-15.21 3.57-28.66 9.04-36.8 2.45-3.66 3.96-9.53 3.96-15.88v-.74c0-24.85 9.54-45 21.3-45 .12 0 .24.01.36.01h.41c12.34.2 23.39 5.47 31.37 13.76 7.97 8.3 12.86 19.63 12.86 31.97 0 6.35 3.19 12.22 8.38 15.88 11.55 8.14 19.1 21.59 19.1 36.8 0 .96-.03 1.92-.09 2.86-.35 5.46 1.64 10.84 5.54 14.67 8.2 8.06 13.33 19.24 13.45 31.62z" fill="#00a23e"/></g></g><path d="m73.24 281.41h12.18v101.23h-12.18z" fill="#a44e3e"/><path d="m164.616 318.51c.25 25-20.77 45.45-45.76 45.45h-45.62v-193.02c.26 0 .51.01.77.01 12.34.2 23.39 5.47 31.37 13.76 7.97 8.3 12.86 19.63 12.86 31.97 0 6.35 3.19 12.22 8.38 15.88 11.55 8.14 19.1 21.59 19.1 36.8 0 .96-.03 1.92-.09 2.86-.35 5.46 1.64 10.84 5.54 14.67 8.2 8.06 13.33 19.24 13.45 31.62z" fill="#008839"/></g><g><g><path d="m152.44 281.41h24.36v147.14h-24.36z" fill="#ec771b"/></g><path d="m164.62 281.41h12.18v147.14h-12.18z" fill="#c55732"/><path d="m152.44 281.41h12.18v101.23h-12.18z" fill="#c55732"/><path d="m164.62 281.41h12.18v101.23h-12.18z" fill="#a44e3e"/><g><path d="m255.998 318.51c.25 25-20.77 45.45-45.76 45.45h-91.23c-25 0-46.01-20.45-45.77-45.45.13-12.38 5.25-23.56 13.46-31.62 3.89-3.83 5.88-9.21 5.54-14.67-.06-.94-.09-1.9-.09-2.86 0-15.21 7.54-28.66 19.1-36.8 5.19-3.66 8.38-9.53 8.38-15.88v-.74c0-24.85 20.14-45 44.99-45 .26 0 .51.01.77.01 12.34.2 23.39 5.47 31.37 13.76 7.97 8.3 12.86 19.63 12.86 31.97 0 6.35 3.19 12.22 8.38 15.88 11.55 8.14 19.1 21.59 19.1 36.8 0 .96-.03 1.92-.09 2.86-.35 5.46 1.64 10.84 5.54 14.67 8.2 8.06 13.33 19.24 13.45 31.62z" fill="#b6e337"/></g><g><g><path d="m255.998 318.51c.25 25-20.77 45.45-45.76 45.45h-67.21c-11.83 0-21.78-20.45-21.66-45.45.06-12.38 2.48-23.56 6.37-31.62 1.84-3.83 2.78-9.21 2.62-14.67-.03-.94-.04-1.9-.04-2.86 0-15.21 3.57-28.66 9.04-36.8 2.45-3.66 3.96-9.53 3.96-15.88v-.74c0-24.85 9.54-45 21.3-45 .12 0 .24.01.36.01h.41c12.34.2 23.39 5.47 31.37 13.76 7.97 8.3 12.86 19.63 12.86 31.97 0 6.35 3.19 12.22 8.38 15.88 11.55 8.14 19.1 21.59 19.1 36.8 0 .96-.03 1.92-.09 2.86-.35 5.46 1.64 10.84 5.54 14.67 8.2 8.06 13.33 19.24 13.45 31.62z" fill="#6cdc2d"/></g></g><path d="m255.998 318.51c.25 25-20.77 45.45-45.76 45.45h-45.62v-193.02c.26 0 .51.01.77.01 12.34.2 23.39 5.47 31.37 13.76 7.97 8.3 12.86 19.63 12.86 31.97 0 6.35 3.19 12.22 8.38 15.88 11.55 8.14 19.1 21.59 19.1 36.8 0 .96-.03 1.92-.09 2.86-.35 5.46 1.64 10.84 5.54 14.67 8.2 8.06 13.33 19.24 13.45 31.62z" fill="#5dbf1d"/></g><g><g><path d="m450.94 281.41v140.51c-1.9 2.25-3.85 4.46-5.84 6.63h-18.52v-147.14z" fill="#ec771b"/><path d="m450.94 281.41v140.51c-1.9 2.25-3.85 4.46-5.84 6.63h-6.34v-147.14z" fill="#c55732"/><path d="m426.58 281.41h12.18v101.23h-12.18z" fill="#c55732"/><path d="m438.76 281.41h12.18v101.23h-12.18z" fill="#a44e3e"/><g><g><path d="m511.25 275.7v.01c-2.38 31.27-10.38 60.96-22.99 88.08-1.28.11-2.58.17-3.88.17h-91.23c-25 0-46.01-20.45-45.77-45.45.13-12.38 5.25-23.56 13.46-31.62 3.89-3.83 5.88-9.21 5.54-14.67-.06-.94-.09-1.9-.09-2.86 0-15.21 7.54-28.66 19.1-36.8 5.19-3.66 8.38-9.53 8.38-15.88v-.74c0-24.85 20.14-45 44.99-45 .13 0 .26 0 .39.01h.38c12.34.2 23.39 5.47 31.37 13.76 7.97 8.3 12.86 19.63 12.86 31.97 0 6.35 3.19 12.22 8.38 15.88 11.55 8.14 19.1 21.59 19.1 36.8 0 .96-.03 1.92-.09 2.86-.07 1.17-.04 2.33.1 3.48z" fill="#43af3e"/></g><g><g><path d="m511.25 275.7v.01c-2.38 31.27-10.38 60.96-22.99 88.08-1.28.11-2.58.17-3.88.17h-67.21c-11.83 0-21.78-20.45-21.66-45.45.06-12.38 2.48-23.56 6.37-31.62 1.84-3.83 2.78-9.21 2.62-14.67-.03-.94-.04-1.9-.04-2.86 0-15.21 3.57-28.66 9.04-36.8 2.45-3.66 3.96-9.53 3.96-15.88v-.74c0-24.85 9.54-45 21.3-45 .12 0 .24.01.36.01h.41c12.34.2 23.39 5.47 31.37 13.76 7.97 8.3 12.86 19.63 12.86 31.97 0 6.35 3.19 12.22 8.38 15.88 11.55 8.14 19.1 21.59 19.1 36.8 0 .96-.03 1.92-.09 2.86-.07 1.17-.04 2.33.1 3.48z" fill="#00a23e"/></g></g></g><path d="m511.25 275.7c-2.38 31.27-10.38 60.97-22.99 88.09-1.28.11-2.58.17-3.88.17h-45.62v-193.02c.26 0 .51.01.77.01 12.34.2 23.39 5.47 31.37 13.76 7.97 8.3 12.86 19.63 12.86 31.97 0 6.35 3.19 12.22 8.38 15.88 11.55 8.14 19.1 21.59 19.1 36.8 0 .96-.03 1.92-.09 2.86-.07 1.17-.04 2.33.1 3.48z" fill="#008839"/></g></g><g><path d="m335.2 281.41h24.36v147.14h-24.36z" fill="#ec771b"/><path d="m347.38 281.41h12.18v147.14h-12.18z" fill="#c55732"/><path d="m335.2 281.41h12.18v101.23h-12.18z" fill="#c55732"/><path d="m347.38 281.41h12.18v101.23h-12.18z" fill="#a44e3e"/><g><g><path d="m438.758 318.51c.25 25-20.77 45.45-45.76 45.45h-91.23c-25 0-46.01-20.45-45.77-45.45.13-12.38 5.25-23.56 13.46-31.62 3.89-3.83 5.88-9.21 5.54-14.67-.06-.94-.09-1.9-.09-2.86 0-15.21 7.54-28.66 19.1-36.8 5.19-3.66 8.38-9.53 8.38-15.88v-.74c0-24.85 20.14-45 44.99-45 .13 0 .26 0 .39.01h.38c12.34.2 23.39 5.47 31.37 13.76 7.97 8.3 12.86 19.63 12.86 31.97 0 6.35 3.19 12.22 8.38 15.88 11.55 8.14 19.1 21.59 19.1 36.8 0 .96-.03 1.92-.09 2.86-.35 5.46 1.64 10.84 5.54 14.67 8.2 8.06 13.33 19.24 13.45 31.62z" fill="#b6e337"/></g><g><g><path d="m438.758 318.51c.25 25-20.77 45.45-45.76 45.45h-67.21c-11.83 0-21.78-20.45-21.66-45.45.06-12.38 2.48-23.56 6.37-31.62 1.84-3.83 2.78-9.21 2.62-14.67-.03-.94-.04-1.9-.04-2.86 0-15.21 3.57-28.66 9.04-36.8 2.45-3.66 3.96-9.53 3.96-15.88v-.74c0-24.85 9.54-45 21.3-45 .12 0 .24.01.36.01h.41c12.34.2 23.39 5.47 31.37 13.76 7.97 8.3 12.86 19.63 12.86 31.97 0 6.35 3.19 12.22 8.38 15.88 11.55 8.14 19.1 21.59 19.1 36.8 0 .96-.03 1.92-.09 2.86-.35 5.46 1.64 10.84 5.54 14.67 8.2 8.06 13.33 19.24 13.45 31.62z" fill="#6cdc2d"/></g></g></g><path d="m438.758 318.51c.25 25-20.77 45.45-45.76 45.45h-45.62v-193.02c.26 0 .51.01.77.01 12.34.2 23.39 5.47 31.37 13.76 7.97 8.3 12.86 19.63 12.86 31.97 0 6.35 3.19 12.22 8.38 15.88 11.55 8.14 19.1 21.59 19.1 36.8 0 .96-.03 1.92-.09 2.86-.35 5.46 1.64 10.84 5.54 14.67 8.2 8.06 13.33 19.24 13.45 31.62z" fill="#5dbf1d"/></g><g><path d="m243.82 281.41h24.36v147.14h-24.36z" fill="#ec771b"/><path d="m256 281.41h12.18v147.14h-12.18z" fill="#c55732"/><path d="m243.82 281.41h12.18v101.23h-12.18z" fill="#c55732"/><path d="m256 281.41h12.18v101.23h-12.18z" fill="#a44e3e"/><g><g><path d="m347.38 318.51c.25 25-20.77 45.45-45.76 45.45h-91.23c-25 0-46.01-20.45-45.77-45.45.13-12.38 5.25-23.56 13.46-31.62 3.89-3.83 5.88-9.21 5.54-14.67-.06-.94-.09-1.9-.09-2.86 0-15.21 7.54-28.66 19.1-36.8 5.19-3.66 8.38-9.53 8.38-15.88v-.74c0-24.85 20.14-45 44.99-45 .13 0 .26 0 .39.01h.38c12.34.2 23.39 5.47 31.37 13.76 7.97 8.3 12.86 19.63 12.86 31.97 0 6.35 3.19 12.22 8.38 15.88 11.55 8.14 19.1 21.59 19.1 36.8 0 .96-.03 1.92-.09 2.86-.35 5.46 1.64 10.84 5.54 14.67 8.2 8.06 13.33 19.24 13.45 31.62z" fill="#43af3e"/></g><g><g><path d="m347.38 318.51c.25 25-20.77 45.45-45.76 45.45h-67.21c-11.83 0-21.78-20.45-21.66-45.45.06-12.38 2.48-23.56 6.37-31.62 1.84-3.83 2.78-9.21 2.62-14.67-.03-.94-.04-1.9-.04-2.86 0-15.21 3.57-28.66 9.04-36.8 2.45-3.66 3.96-9.53 3.96-15.88v-.74c0-24.85 9.54-45 21.3-45 .12 0 .24.01.36.01h.41c12.34.2 23.39 5.47 31.37 13.76 7.97 8.3 12.86 19.63 12.86 31.97 0 6.35 3.19 12.22 8.38 15.88 11.55 8.14 19.1 21.59 19.1 36.8 0 .96-.03 1.92-.09 2.86-.35 5.46 1.64 10.84 5.54 14.67 8.2 8.06 13.33 19.24 13.45 31.62z" fill="#00a23e"/></g></g></g><path d="m347.38 318.51c.25 25-20.77 45.45-45.76 45.45h-45.62v-193.02c.26 0 .51.01.77.01 12.34.2 23.39 5.47 31.37 13.76 7.97 8.3 12.86 19.63 12.86 31.97 0 6.35 3.19 12.22 8.38 15.88 11.55 8.14 19.1 21.59 19.1 36.8 0 .96-.03 1.92-.09 2.86-.35 5.46 1.64 10.84 5.54 14.67 8.2 8.06 13.33 19.24 13.45 31.62z" fill="#008839"/></g><g><path d="m188.937 113.419c0-.063.005-.126.005-.189 0-11.577-9.385-20.963-20.962-20.963-2.75 0-5.374.535-7.781 1.498-4.648-8.328-13.543-13.962-23.757-13.962-13.265 0-24.305 9.499-26.705 22.065-.715-.103-1.446-.159-2.189-.159-7.212 0-13.254 4.993-14.87 11.709h96.259z" fill="#fff"/><path d="m168.484 113.419c0-.037.003-.072.003-.109 0-6.657-5.397-12.054-12.054-12.054-1.582 0-3.091.308-4.474.862-2.673-4.789-7.787-8.029-13.661-8.029-7.628 0-13.976 5.463-15.356 12.688-.411-.059-.831-.091-1.259-.091-4.147 0-7.622 2.871-8.55 6.733z" fill="#dff7fd"/></g><g><path d="m294.711 40.487c0-.046.003-.092.003-.139 0-8.496-6.887-15.383-15.383-15.383-2.018 0-3.944.393-5.71 1.099-3.411-6.111-9.938-10.246-17.434-10.246-9.734 0-17.836 6.971-19.597 16.192-.525-.075-1.061-.116-1.607-.116-5.292 0-9.727 3.664-10.912 8.592h70.64z" fill="#fff"/><path d="m279.702 40.487c0-.027.002-.053.002-.08 0-4.885-3.96-8.845-8.846-8.845-1.161 0-2.268.226-3.283.632-1.961-3.514-5.715-5.892-10.025-5.892-5.597 0-10.256 4.008-11.269 9.311-.302-.043-.61-.067-.924-.067-3.043 0-5.593 2.107-6.275 4.941z" fill="#dff7fd"/></g><g><path d="m355.896 121.755c0-.049-.004-.097-.004-.146 0-8.942 7.249-16.191 16.191-16.191 2.124 0 4.151.413 6.01 1.157 3.59-6.432 10.46-10.784 18.35-10.784 10.246 0 18.773 7.337 20.626 17.043.552-.079 1.117-.122 1.691-.122 5.57 0 10.238 3.856 11.485 9.044h-74.349z" fill="#fff"/><path d="m371.694 121.755c0-.028-.002-.056-.002-.084 0-5.142 4.168-9.31 9.31-9.31 1.222 0 2.387.238 3.456.665 2.065-3.699 6.015-6.201 10.552-6.201 5.891 0 10.795 4.219 11.861 9.8.318-.046.642-.07.972-.07 3.203 0 5.887 2.217 6.604 5.2z" fill="#dff7fd"/></g></g><circle cx="279.054" cy="449.491" fill="#53af17" r="8.17"/><path d="m362.567 475.746c0 2.768-2.244 5.012-5.012 5.012s-5.012-2.244-5.012-5.012 2.244-5.012 5.012-5.012 5.012 2.244 5.012 5.012z" fill="#53af17"/><circle cx="212.329" cy="447.812" fill="#6cdc2d" r="5.012"/><circle cx="168.824" cy="455.131" fill="#6cdc2d" r="5.012"/><circle cx="332.462" cy="445.506" fill="#53af17" r="5.012"/><ellipse cx="241.4" cy="475.231" fill="#6cdc2d" rx="7.835" ry="7.835" transform="matrix(.23 -.973 .973 .23 -276.58 600.987)"/><circle cx="304.353" cy="483.065" fill="#53af17" r="7.319"/><circle cx="190.772" cy="480.243" fill="#6cdc2d" r="7.319"/><ellipse cx="123.012" cy="447.812" fill="#6cdc2d" rx="7.319" ry="7.319" transform="matrix(.924 -.383 .383 .924 -162.006 81.162)"/><ellipse cx="399.266" cy="445.506" fill="#53af17" rx="7.319" ry="7.319" transform="matrix(.23 -.973 .973 .23 -126.055 731.734)"/></g></svg>