<svg id="Layer_1" enable-background="new 0 0 512 512" height="512" viewBox="0 0 512 512" width="512" xmlns="http://www.w3.org/2000/svg"><g><g><g><g><g><g id="XMLID_1293_"><g id="XMLID_1294_"><g id="XMLID_1295_"><g id="XMLID_1296_"><g id="XMLID_1297_"><g id="XMLID_1298_"><g id="XMLID_1299_"><g id="XMLID_1300_"><g id="XMLID_1301_"><g id="XMLID_1302_"><g id="XMLID_1303_"><g id="XMLID_1304_"><g id="XMLID_1307_"><g id="XMLID_1541_"><g id="XMLID_1549_"><circle cx="256" cy="256" fill="#00da80" r="256"/></g></g></g></g></g></g></g></g></g></g></g></g></g></g></g></g></g></g></g><path d="m166.162 495.793c27.954 10.477 58.227 16.207 89.838 16.207 141.385 0 256-114.615 256-256 0-31.611-5.73-61.884-16.207-89.837l-25.113-25.113-429.361 229.9z" fill="#00b4bc"/><path d="m41.319 141.05h429.361v229.899h-429.361z" fill="#ffe705"/><path d="m255.44 141.05h215.24v229.9h-215.24z" fill="#ffb454"/><path d="m79.217 249.426h353.566v121.524h-353.566z" fill="#fff"/><path d="m255.44 249.43h177.34v121.52h-177.34z" fill="#e7f9fb"/><g><g><path d="m112.019 249.429h31.996v121.52h-31.996z" fill="#e7f9fb"/></g><g><path d="m176.011 249.429h31.996v121.52h-31.996z" fill="#e7f9fb"/></g><g><path d="m240.002 249.429h31.996v121.52h-31.996z" fill="#e7f9fb"/></g><g><path d="m255.44 249.43h16.56v121.52h-16.56z" fill="#bceaf9"/></g><g><path d="m303.993 249.429h31.996v121.52h-31.996z" fill="#bceaf9"/></g><g><path d="m367.985 249.429h31.996v121.52h-31.996z" fill="#bceaf9"/></g></g><g><g><g><g><path d="m224.563 249.429h30.878v65.615h-30.878z" fill="#00337a"/></g></g><g><path d="m288.625 249.429h30.878v65.615h-30.878z" fill="#002659"/></g><g><g><path d="m128.576 249.429h30.878v65.615h-30.878z" fill="#00337a"/></g></g><g><g><path d="m352.546 249.429h30.878v65.615h-30.878z" fill="#002659"/></g></g></g></g><ellipse cx="114.274" cy="197.595" fill="#ec3d93" rx="16.519" ry="16.519" transform="matrix(.707 -.707 .707 .707 -106.251 138.678)"/><ellipse cx="179.479" cy="197.595" fill="#ec3d93" rx="16.519" ry="16.519" transform="matrix(.231 -.973 .973 .231 -54.283 326.482)"/><path d="m231.833 181.077h109.958v33.037h-109.958z" fill="#00429b"/><path d="m255.44 181.08h86.35v33.03h-86.35z" fill="#00429b"/><path d="m379.939 181.077h45.304v33.037h-45.304z" fill="#002659"/></g></svg>