<svg id="Layer_1" enable-background="new 0 0 512 512" height="512" viewBox="0 0 512 512" width="512" xmlns="http://www.w3.org/2000/svg"><g><g><g><g><g><g id="XMLID_493_"><g id="XMLID_494_"><g id="XMLID_746_"><g id="XMLID_747_"><g id="XMLID_748_"><g id="XMLID_749_"><g id="XMLID_750_"><g id="XMLID_751_"><g id="XMLID_752_"><g id="XMLID_753_"><g id="XMLID_754_"><g id="XMLID_755_"><g id="XMLID_756_"><g id="XMLID_763_"><g id="XMLID_980_"><circle cx="256" cy="256" fill="#e7f9fb" r="256"/></g></g></g></g></g></g></g></g></g></g></g></g></g></g></g></g></g></g></g><path d="m512 256c0-36.833-7.794-71.842-21.798-103.488l-86.512-86.512-210.625 99.88-18.02 161.732-102.865 74.102 94.11 94.109c27.919 10.45 58.144 16.177 89.71 16.177 141.385 0 256-114.615 256-256z" fill="#bceaf9"/><g><g><g><path d="m154.647 307.136c-12.857-1.013-27.114.935-41.243 6.253-38.012 14.306-60.686 47.535-50.643 74.219s48.999 36.718 87.011 22.412c32.078-12.073 53.233-37.622 53.02-61.341h.002v-148.747h-48.147z" fill="#00da80"/><path d="m403.689 146.497h-48.147v106.32c-12.857-1.013-27.114.935-41.243 6.253-38.012 14.306-60.686 47.535-50.643 74.219s48.999 36.718 87.011 22.412c31.681-11.923 52.688-36.989 53-60.457h.023v-148.747z" fill="#00b4bc"/></g><path d="m403.689 159.122-249.042 53.435v-93.119l249.042-53.435z" fill="#00b4bc"/></g><path d="m403.69 66v93.12l-147.69 31.69v-93.12z" fill="#00cbb1"/></g></g></svg>