<?xml version="1.0" encoding="iso-8859-1"?>
<!-- Generator: Adobe Illustrator 19.0.0, SVG Export Plug-In . SVG Version: 6.00 Build 0)  -->
<svg version="1.1" id="Capa_1" xmlns="http://www.w3.org/2000/svg" xmlns:xlink="http://www.w3.org/1999/xlink" x="0px" y="0px"
	 viewBox="0 0 512 512" style="enable-background:new 0 0 512 512;" xml:space="preserve">
<g>
	<g>
		<circle style="fill:#9AF4EF;" cx="256" cy="256" r="256"/>
	</g>
	<g>
		<path style="fill:#C5F8F1;" d="M435.872,73.886c-14.7,5.281-25.875,17.951-29.025,33.544c-0.305-0.005-0.6-0.046-0.906-0.046
			c-24.241,0-44.755,15.907-51.707,37.846c-3.717-0.989-7.549-1.684-11.577-1.684c-24.965,0-45.203,20.238-45.203,45.203
			l25.594,80.518c0,0,148.317,11.155,151.365,10.626c1.433-0.249,19.037-17.458,37.283-35.926
			C508.618,177.501,480.198,117.67,435.872,73.886z"/>
	</g>
	<g>
		<path style="fill:#DEFBF2;" d="M303.084,190.363c0.047-0.972,0.147-1.93,0.147-2.914c0-32.898-26.669-59.567-59.567-59.567
			c-2.644,0-5.229,0.232-7.782,0.565c-12.431-25.5-38.527-43.114-68.805-43.114c-30.832,0-57.339,18.259-69.481,44.519
			c-11.571-11.717-27.631-18.991-45.399-18.991c-2.5,0-4.953,0.182-7.377,0.461C16.564,152.486,0,202.301,0,256
			c0,1.607,0.092,3.192,0.121,4.792c6.827,2.59,15.624,4.138,26.969,4.012c60.952-0.677,248.825-20.187,252.312-19.616
			c3.487,0.571,54.962,10.341,54.962,10.341c1.882-5.324,2.906-11.054,2.906-17.022C337.27,216.23,322.98,197.337,303.084,190.363z"
			/>
	</g>
	<g>
		<path style="fill:#94D75B;" d="M6.544,198.588C2.311,217.053,0,236.251,0,256c0,141.385,114.615,256,256,256s256-114.615,256-256
			c0-15.189-1.399-30.043-3.936-44.505c-46.099,1.993-47.903,36.381-105.615,36.381l-81.434,0.941
			c-19.862,0-104.538-66.904-158.897-66.904C108.684,181.913,71.346,198.038,6.544,198.588z"/>
	</g>
	<g>
		<path style="fill:#71BE63;" d="M337.27,285.353c11.175-39.511-41.651,7.219-43.683,11.282
			c-1.513,3.027-69.532,137.938-104.138,206.575C210.677,508.911,232.973,512,256,512c57.487,0,110.545-18.951,153.276-50.942
			l13.327-62.383C402.286,355.556,326.095,324.865,337.27,285.353z"/>
	</g>
	<g>
		<path style="fill:#71BE63;" d="M41.785,396.113l206.407-37.172l31.21-100.824c-52.523,9.395-114.905,33.099-192.037,11.15
			c-25.338-7.21-63.661-11.15-87.115-3.359C2.079,313.873,17.091,358.437,41.785,396.113z"/>
	</g>
	<g>
		<path style="fill:#FFEFC6;" d="M158.475,460.19c-4.559,5.961-10.812,15.198-17.046,24.729
			c29.308,14.698,61.817,23.913,96.216,26.353c57.255-41.042,88.895-219.427,107.603-242.005
			C345.248,269.267,171.683,442.921,158.475,460.19z"/>
	</g>
	<g>
		<path style="fill:#646464;" d="M217.778,418.54c-1.952,0-3.905-0.694-5.46-2.107c-3.325-3.012-3.579-8.151-0.563-11.476
			c6.19-6.829,12.254-14.536,18.524-23.56c2.556-3.686,7.611-4.599,11.317-2.032c3.683,2.56,4.595,7.627,2.032,11.31
			c-6.683,9.603-13.167,17.845-19.825,25.194C222.198,417.639,219.992,418.54,217.778,418.54z"/>
	</g>
	<g>
		<path style="fill:#646464;" d="M252.587,369.778c-1.421,0-2.865-0.373-4.167-1.155c-3.849-2.31-5.103-7.302-2.794-11.151
			c5.159-8.615,10.063-17.266,14.817-25.655c6.341-11.19,12.333-21.762,18.436-31.405c2.397-3.794,7.421-4.929,11.214-2.524
			c3.786,2.401,4.921,7.421,2.516,11.214c-5.889,9.31-11.786,19.714-18.024,30.726c-4.817,8.504-9.786,17.27-15.024,26
			C258.04,368.369,255.349,369.778,252.587,369.778z"/>
	</g>
	<g>
		<path style="fill:#646464;" d="M109.706,418.54c-4.159,0-7.706-3.179-8.087-7.401c-0.397-4.472,2.897-8.421,7.373-8.821
			c5.167-0.464,10.381-1.179,15.492-2.127c4.389-0.802,8.651,2.099,9.476,6.512c0.817,4.413-2.095,8.651-6.508,9.472
			c-5.611,1.04-11.333,1.825-17.016,2.333C110.19,418.528,109.944,418.54,109.706,418.54z"/>
	</g>
	<g>
		<path style="fill:#646464;" d="M158.476,406.806c-3.198,0-6.238-1.909-7.524-5.06c-1.698-4.155,0.294-8.901,4.452-10.595
			c14.429-5.893,27.357-13.694,38.413-23.19c3.405-2.917,8.524-2.54,11.46,0.865c2.921,3.405,2.532,8.536-0.873,11.46
			c-12.381,10.643-26.802,19.361-42.857,25.913C160.54,406.611,159.5,406.806,158.476,406.806z"/>
	</g>
	<g>
		<path style="fill:#B0EB81;" d="M318.225,248.347c-23.817-4.832-103.873-66.434-156.106-66.434
			c-52.244,0-89.17,15.374-151.349,16.575c6.979,0.339,17.484-0.21,32.453-1.93C227.367,175.407,199.113,248.347,318.225,248.347z"
			/>
	</g>
	<g>
		<path style="fill:#FFEFC6;" d="M17.291,348.477c7.835,20.208,18.153,39.163,30.593,56.509l147.163-27.532l90.698-107.91
			l-6.344-11.427C224.827,275.883,131.646,357.672,17.291,348.477z"/>
	</g>
	<g>
		<path style="fill:#57B9E7;" d="M402.163,247.879l-81.147,0.938c-0.776,0-1.821-0.274-2.79-0.47
			c-99.848,8.244-124.753,128.322-287.418,129.501c30.036,55.394,79.935,98.41,140.121,119.616
			C315.23,422.396,288.095,248.01,402.163,247.879z"/>
	</g>
	<g>
		<path style="fill:#43AB5F;" d="M112.15,305.261c-0.282-5.498-4.74-9.9-10.309-9.9c-4.685,0-8.498,3.151-9.806,7.407
			c-1.803-6.137-7.411-10.645-14.131-10.645c-6.524,0-11.998,4.251-13.965,10.113c-1.822-3.991-5.096-7.166-9.173-8.826
			c-1.71-7.727-8.578-13.515-16.819-13.515c-6.87,0-12.751,4.046-15.526,9.857c-1.953-0.613-3.991-1.035-6.146-1.035
			c-5.097,0-9.703,1.917-13.306,4.977c1.937,13.104,4.8,25.897,8.643,38.273c51.457,2.385,113.107-12.843,142.801-30.591
			C154.413,301.375,135.499,304.463,112.15,305.261z"/>
	</g>
	<g>
		<path style="fill:#43AB5F;" d="M480.316,379.391c-9.009-11.331-22.886-18.618-38.487-18.618
			c-27.158,0-49.175,22.016-49.175,49.175c0,0.552,0.064,1.087,0.082,1.635c-8.571,1.855-16.228,6.156-22.188,12.159
			c-5.653-2.38-11.862-3.699-18.38-3.699c-26.182,0-47.407,21.225-47.407,47.408c-16.575,0-30.012,13.437-30.012,30.012
			c0,4.892,1.282,9.442,3.358,13.523C365.358,503.517,440.105,452.337,480.316,379.391z"/>
	</g>
	<g>
		<path style="fill:#79CEEA;" d="M236.956,304.757c-33.618,40.813-21.708,66.313,6.382,39.624
			c49.29-46.834,109.788-94.522,144.043-96.331l-66.365,0.767C291.124,253.7,269.169,265.651,236.956,304.757z"/>
	</g>
	<g>
		<g>
			<path style="fill:#3C9BD4;" d="M312.072,316.014c-14.702,27.951-98.871,135.219-200.784,151.065
				c18.316,12.57,38.315,22.871,59.64,30.384C256.588,452.903,281.837,373.345,312.072,316.014z"/>
		</g>
		<g>
			<path style="fill:#3C9BD4;" d="M312.149,315.87c0.177-0.336,0.36-0.652,0.538-0.987h-0.008
				C312.531,315.179,312.315,315.553,312.149,315.87z"/>
		</g>
	</g>
	<g>
		<path style="fill:#3C9BD4;" d="M243.803,279.073c-52.2,38.179-98.442,97.944-212.996,98.775
			c4.124,7.606,8.656,14.952,13.504,22.067C142.899,398.224,205.773,308.511,243.803,279.073z"/>
	</g>
	<g>
		<path style="fill:#B0EB81;" d="M508.064,211.495c-46.099,1.993-47.903,36.381-105.615,36.381l-3.301,0.038
			c11.732,4.621,25.998,7.673,41.232,5.038c45.566-7.88,63.13-7.421,71.478-3.157C511.532,236.766,510.254,223.977,508.064,211.495z
			"/>
	</g>
</g>
<g>
</g>
<g>
</g>
<g>
</g>
<g>
</g>
<g>
</g>
<g>
</g>
<g>
</g>
<g>
</g>
<g>
</g>
<g>
</g>
<g>
</g>
<g>
</g>
<g>
</g>
<g>
</g>
<g>
</g>
</svg>
