<svg xmlns="http://www.w3.org/2000/svg" xmlns:xlink="http://www.w3.org/1999/xlink" version="1.1" style="enable-background:new 0 0 426.667 426.667;" xml:space="preserve" width="426.667" height="426.667"><rect id="backgroundrect" width="100%" height="100%" x="0" y="0" fill="none" stroke="none"/>
















<g class="currentLayer" style=""><title>Layer 1</title><g id="svg_1" class="" fill-opacity="1" fill="#0000cd">
	<g id="svg_2" fill="#0000cd">
		<path d="M362.667,42.667h-89.28C264.64,17.92,241.173,0,213.333,0s-51.307,17.92-60.053,42.667H64    c-23.573,0-42.667,19.093-42.667,42.667V384c0,23.573,19.093,42.667,42.667,42.667h298.667c23.573,0,42.667-19.093,42.667-42.667    V85.333C405.333,61.76,386.24,42.667,362.667,42.667z M213.333,42.667c11.733,0,21.333,9.493,21.333,21.333    c0,11.84-9.6,21.333-21.333,21.333S192,75.84,192,64C192,52.16,201.6,42.667,213.333,42.667z M170.667,341.333L85.333,256    l30.187-30.187l55.147,55.147l140.48-140.48l30.187,30.187L170.667,341.333z" id="svg_3" fill="#0000cd"/>
	</g>
</g><g id="svg_4">
</g><g id="svg_5">
</g><g id="svg_6">
</g><g id="svg_7">
</g><g id="svg_8">
</g><g id="svg_9">
</g><g id="svg_10">
</g><g id="svg_11">
</g><g id="svg_12">
</g><g id="svg_13">
</g><g id="svg_14">
</g><g id="svg_15">
</g><g id="svg_16">
</g><g id="svg_17">
</g><g id="svg_18">
</g></g></svg>