<svg xmlns="http://www.w3.org/2000/svg" xmlns:xlink="http://www.w3.org/1999/xlink" version="1.1" style="enable-background:new 0 0 510 510;" xml:space="preserve" width="510" height="510"><rect id="backgroundrect" width="100%" height="100%" x="0" y="0" fill="none" stroke="none"/>





























<g class="currentLayer" style=""><title>Layer 1</title><path style="" d="M393.6,75.416v409.6c0,14.933-11.733,26.667-26.667,26.667H26.667  C11.733,512.749,0,501.016,0,486.083V75.416c0-14.933,11.733-26.667,26.667-26.667h340.267  C381.867,48.749,393.6,61.549,393.6,75.416z" id="svg_1" class="" fill-opacity="1" fill="#0000cd"/><rect x="45.867000579833984" y="91.41600036621094" style="fill:#FFFFFF;" width="301.86700439453125" height="375.4670104980469" id="svg_2"/><path style="fill:#415A6B;" d="M281.6,110.616V51.949c0-8.533-6.4-14.933-14.933-14.933h-34.133l0,0c0-19.2-16-36.267-36.267-36.267  c-19.2,0-35.2,16-35.2,36.267l0,0h-34.133c-8.533,0-14.933,6.4-14.933,14.933v58.667H281.6z M197.333,24.216  c6.4,0,12.8,5.333,12.8,12.8c0,6.4-5.333,12.8-12.8,12.8c-6.4,0-12.8-5.333-12.8-12.8S189.867,24.216,197.333,24.216z" id="svg_3"/><path style="" d="M141.867,220.483H83.2v-58.667h58.667V220.483z M89.6,214.083h46.933v-46.933H89.6V214.083z" id="svg_4" class="" fill-opacity="1" fill="#fabb18"/><path style="" d="M100.267,211.949c-2.133,0-4.267-1.067-6.4-3.2L70.4,185.283c-3.2-3.2-3.2-9.6,0-12.8  c3.2-3.2,9.6-3.2,12.8,0l16,16l34.133-34.133c3.2-3.2,9.6-3.2,12.8,0c3.2,3.2,3.2,9.6,0,12.8l-39.467,42.667  C105.6,210.883,102.4,211.949,100.267,211.949z" id="svg_5" class="" fill-opacity="1" fill="#0000cd"/><path style="" d="M141.867,328.216H83.2v-58.667h58.667V328.216z M89.6,322.883h46.933v-46.933H89.6V322.883z" id="svg_6" class="" fill-opacity="1" fill="#fabb18"/><path style="" d="M100.267,319.683c-2.133,0-4.267-1.067-6.4-3.2L70.4,293.016c-3.2-3.2-3.2-9.6,0-12.8  c4.267-2.133,9.6-2.133,13.867,1.067l16,16l34.133-34.133c3.2-3.2,9.6-3.2,12.8,0s3.2,9.6,0,12.8l-40.533,41.6  C105.6,319.683,102.4,319.683,100.267,319.683z" id="svg_7" class="" fill-opacity="1" fill="#0000cd"/><path style="" d="M141.867,437.016H83.2v-58.667h58.667V437.016z M89.6,430.616h46.933v-46.933H89.6V430.616z" id="svg_8" class="" fill-opacity="1" fill="#fabb18"/><path style="" d="M100.267,428.483c-2.133,0-4.267-1.067-6.4-3.2L70.4,401.816c-3.2-3.2-3.2-9.6,0-12.8  c3.2-3.2,9.6-3.2,12.8,0l17.067,17.067l34.133-34.133c3.2-3.2,9.6-3.2,12.8,0c3.2,3.2,3.2,9.6,0,12.8l-40.533,40.533  C105.6,427.416,102.4,428.483,100.267,428.483z" id="svg_9" class="" fill-opacity="1" fill="#0000cd"/><rect x="440.1860046386719" y="32.13100051879883" transform="matrix(0.5966,-0.8025,0.8025,0.5966,146.9174,398.1517) " style="fill:#415A6B;" width="58.665000915527344" height="41.5989990234375" id="svg_10"/><path style="" d="M435.2,61.549c22.4-7.467,53.333,5.333,53.333,5.333l-176,236.8  c-27.733,37.333-61.867,70.4-101.333,97.067l0,0l0,0c13.867-44.8,36.267-86.4,64-124.8L435.2,61.549z" id="svg_11" class="" fill-opacity="1" fill="#fabb18"/><rect x="289.3789978027344" y="243.83599853515625" transform="matrix(-0.5966,0.8025,-0.8025,-0.5966,709.3256,177.0012) " style="fill:#415A6B;" width="41.5989990234375" height="45.8650016784668" id="svg_12"/><path style="" d="M477.867,22.083l20.267,14.933l11.733-16c4.267-5.333,3.2-12.8-2.133-17.067l0,0  c-6.4-5.333-13.867-3.2-18.133,2.133L477.867,22.083z" id="svg_13" class="" fill-opacity="1" fill="#fabb18"/><path style="fill:#415A6B;" d="M472.533,35.949l-6.4,8.533l-16-11.733l-49.067,61.867c4.267,5.333,1.067,9.6-3.2,16  c-4.267,6.4-10.667,10.667-17.067,5.333l0,0l0,0c-2.133-2.133-3.2-5.333-1.067-7.467l64-86.4c2.133-2.133,5.333-3.2,7.467-1.067  L472.533,35.949z" id="svg_14"/><g id="svg_15">
</g><g id="svg_16">
</g><g id="svg_17">
</g><g id="svg_18">
</g><g id="svg_19">
</g><g id="svg_20">
</g><g id="svg_21">
</g><g id="svg_22">
</g><g id="svg_23">
</g><g id="svg_24">
</g><g id="svg_25">
</g><g id="svg_26">
</g><g id="svg_27">
</g><g id="svg_28">
</g><g id="svg_29">
</g></g></svg>