<svg xmlns="http://www.w3.org/2000/svg" xmlns:xlink="http://www.w3.org/1999/xlink" version="1.1" style="enable-background:new 0 0 512 512;" xml:space="preserve" width="512" height="512"><rect id="backgroundrect" width="100%" height="100%" x="0" y="0" fill="none" stroke="none"/>





















<g class="currentLayer" style=""><title>Layer 1</title><g id="svg_1" class="selected" fill-opacity="1" fill="#f7f7fa">
	<g id="svg_2" fill="#f7f7fa">
		<path d="M501.333,202.667h-61.056c-3.943-13.651-9.403-26.818-16.277-39.253l43.2-43.189c4.164-4.165,4.164-10.917,0-15.083    L406.859,44.8c-4.165-4.164-10.917-4.164-15.083,0L348.587,88c-12.436-6.874-25.602-12.334-39.253-16.277V10.667    C309.333,4.776,304.558,0,298.667,0h-85.333c-5.891,0-10.667,4.776-10.667,10.667v61.056    c-13.651,3.943-26.818,9.403-39.253,16.277l-43.189-43.2c-4.165-4.164-10.917-4.164-15.083,0L44.8,105.141    c-4.164,4.165-4.164,10.917,0,15.083L88,163.413c-6.874,12.436-12.334,25.602-16.277,39.253H10.667    C4.776,202.667,0,207.442,0,213.333v85.333c0,5.891,4.776,10.667,10.667,10.667h61.056c3.943,13.651,9.403,26.818,16.277,39.253    l-43.2,43.179c-4.164,4.165-4.164,10.917,0,15.083l60.341,60.352c2,2.001,4.713,3.125,7.541,3.125    c2.829-0.001,5.541-1.125,7.541-3.125l43.189-43.2c12.436,6.874,25.602,12.334,39.253,16.277v61.056    c0,5.891,4.776,10.667,10.667,10.667h85.333c5.891,0,10.667-4.776,10.667-10.667v-61.056c13.651-3.943,26.818-9.403,39.253-16.277    l43.189,43.2c4.231,4.001,10.851,4.001,15.083,0l60.341-60.352c4.164-4.165,4.164-10.917,0-15.083L424,348.587    c6.874-12.436,12.334-25.602,16.277-39.253h61.056c5.891,0,10.667-4.776,10.667-10.667v-85.333    C512,207.442,507.224,202.667,501.333,202.667z M490.667,288h-58.592c-4.929,0.001-9.215,3.379-10.368,8.171    c-4.151,17.144-10.949,33.537-20.149,48.587c-2.572,4.205-1.928,9.624,1.557,13.109l41.451,41.44l-45.248,45.259l-41.451-41.451    c-3.485-3.486-8.905-4.129-13.109-1.557c-15.05,9.2-31.442,15.998-48.587,20.149c-4.792,1.153-8.169,5.439-8.171,10.368v58.592    h-64v-58.592c-0.001-4.929-3.379-9.215-8.171-10.368c-17.144-4.151-33.537-10.949-48.587-20.149    c-4.205-2.572-9.624-1.928-13.109,1.557l-41.451,41.451l-45.248-45.259l41.451-41.44c3.486-3.485,4.129-8.905,1.557-13.109    c-9.2-15.05-15.998-31.443-20.149-48.587c-1.153-4.792-5.439-8.17-10.368-8.171H21.333v-64h58.592    c4.929-0.001,9.215-3.379,10.368-8.171c4.151-17.144,10.949-33.537,20.149-48.587c2.572-4.205,1.928-9.624-1.557-13.109    l-41.451-41.451l45.248-45.248l41.451,41.451c3.485,3.486,8.905,4.129,13.109,1.557c15.05-9.2,31.443-15.998,48.587-20.149    c4.792-1.153,8.17-5.439,8.171-10.368V21.333h64v58.592c0.001,4.929,3.379,9.215,8.171,10.368    c17.144,4.151,33.537,10.949,48.587,20.149c4.205,2.572,9.624,1.928,13.109-1.557l41.451-41.451l45.248,45.248l-41.451,41.451    c-3.486,3.485-4.129,8.905-1.557,13.109c9.2,15.05,15.998,31.442,20.149,48.587c1.153,4.792,5.439,8.169,10.368,8.171h58.592V288z    " id="svg_3" fill="#f7f7fa"/>
	</g>
</g><g id="svg_4" class="selected" fill-opacity="1" fill="#f7f7fa">
	<g id="svg_5" fill="#f7f7fa">
		<path d="M256,138.667C191.23,138.743,138.743,191.23,138.667,256H160c0.059-52.995,43.005-95.941,96-96h32v-21.333H256z" id="svg_6" fill="#f7f7fa"/>
	</g>
</g><g id="svg_7" class="selected" fill-opacity="1" fill="#f7f7fa">
	<g id="svg_8" fill="#f7f7fa">
		<path d="M352,256c-0.059,52.995-43.005,95.941-96,96h-32v21.333h32C320.77,373.257,373.257,320.77,373.333,256H352z" id="svg_9" fill="#f7f7fa"/>
	</g>
</g><g id="svg_10" class="selected" fill-opacity="1" fill="#f7f7fa">
	<g id="svg_11" fill="#f7f7fa">
		<path d="M295.541,141.792l-42.667-42.667l-15.083,15.083l35.125,35.125l-35.125,35.125l15.083,15.083l42.667-42.667    C299.705,152.709,299.705,145.957,295.541,141.792z" id="svg_12" fill="#f7f7fa"/>
	</g>
</g><g id="svg_13" class="selected" fill-opacity="1" fill="#f7f7fa">
	<g id="svg_14" fill="#f7f7fa">
		<path d="M274.208,327.541l-15.083-15.083l-42.667,42.667c-4.164,4.165-4.164,10.917,0,15.083l42.667,42.667l15.083-15.083    l-35.125-35.125L274.208,327.541z" id="svg_15" fill="#f7f7fa"/>
	</g>
</g><g id="svg_16" class="selected" fill-opacity="1" fill="#f7f7fa">
	<g id="svg_17" fill="#f7f7fa">
		<path d="M256,213.333c-23.564,0-42.667,19.103-42.667,42.667s19.103,42.667,42.667,42.667c23.564,0,42.667-19.103,42.667-42.667    C298.667,232.436,279.564,213.333,256,213.333z M256,277.333c-11.782,0-21.333-9.551-21.333-21.333s9.551-21.333,21.333-21.333    c11.782,0,21.333,9.551,21.333,21.333C277.333,267.782,267.782,277.333,256,277.333z" id="svg_18" fill="#f7f7fa"/>
	</g>
</g><g id="svg_19">
</g><g id="svg_20">
</g><g id="svg_21">
</g><g id="svg_22">
</g><g id="svg_23">
</g><g id="svg_24">
</g><g id="svg_25">
</g><g id="svg_26">
</g><g id="svg_27">
</g><g id="svg_28">
</g><g id="svg_29">
</g><g id="svg_30">
</g><g id="svg_31">
</g><g id="svg_32">
</g><g id="svg_33">
</g></g></svg>