<?xml version="1.0" encoding="iso-8859-1"?>
<!-- Generator: Adobe Illustrator 19.0.0, SVG Export Plug-In . SVG Version: 6.00 Build 0)  -->
<svg version="1.1" id="Layer_1" xmlns="http://www.w3.org/2000/svg" xmlns:xlink="http://www.w3.org/1999/xlink" x="0px" y="0px"
	 viewBox="0 0 512 512" style="enable-background:new 0 0 512 512;" xml:space="preserve">
<circle style="fill:#F14742;" cx="256" cy="256" r="256"/>
<g>
	<path style="fill:#FEE191;" d="M256,54.843c-4.714,0-8.533,3.821-8.533,8.533v56.889h17.067V63.376
		C264.533,58.664,260.714,54.843,256,54.843z"/>
	<path style="fill:#FEE191;" d="M226.314,395.258c0,16.395,13.29,29.686,29.686,29.686s29.686-13.29,29.686-29.686v-45.511h-59.372
		V395.258z"/>
</g>
<polygon style="fill:#FFF1CD;" points="139.378,315.614 139.378,361.125 372.622,361.125 372.622,315.614 256,292.858 "/>
<g>
	<path style="fill:#FFD24D;" d="M372.622,214.132c0-64.306-52.316-116.622-116.622-116.622s-116.622,52.316-116.622,116.622v101.482
		h233.244V214.132z"/>
	<path style="fill:#FFD24D;" d="M386.844,369.658H125.156c-4.714,0-8.533-3.821-8.533-8.533s3.82-8.533,8.533-8.533h261.689
		c4.714,0,8.533,3.821,8.533,8.533S391.558,369.658,386.844,369.658z"/>
</g>
<g>
</g>
<g>
</g>
<g>
</g>
<g>
</g>
<g>
</g>
<g>
</g>
<g>
</g>
<g>
</g>
<g>
</g>
<g>
</g>
<g>
</g>
<g>
</g>
<g>
</g>
<g>
</g>
<g>
</g>
</svg>
