<svg id="Layer_1" enable-background="new 0 0 510.173 510.173" height="512" viewBox="0 0 510.173 510.173" width="512" xmlns="http://www.w3.org/2000/svg"><g><g><g><g><path d="m510 255.087c0 30.29-5.281 59.346-14.973 86.299-35.37 98.362-129.484 154.537-240.027 154.537-140.833 0-240.775-98.004-240.775-238.837 0-92.647 35.183-175.754 109.088-220.41 38.437-23.224 83.501-36.589 131.687-36.589 140.833 0 255 114.167 255 255z" fill="#3342aa"/></g></g><g><g><path d="m363.33 377.977c-140.833 0-255-114.167-255-255 0-30.29 5.294-59.341 14.986-86.294-73.904 44.655-123.316 125.757-123.316 218.404 0 140.833 114.167 255 255 255 110.542 0 204.644-70.344 240.014-168.706-38.438 23.225-83.498 36.596-131.684 36.596z" fill="#2b3890"/></g></g></g><g><g><path d="m491.618 84.554c-4.715-4.944-7.165-11.669-6.678-18.483 2.063-28.884-20.794-54.939-51.282-54.939-18.201 0-34.184 9.464-43.309 23.739-6.538 10.227-18.592 15.538-30.632 13.994-2.491-.319-5.043-.444-7.641-.356-26.859.901-47.627 24.63-45.225 51.397 2.981 33.234 39.524 53.13 69.268 36.963 3.103 35.188 33.324 62.59 69.641 61.139 34.812-1.391 63.058-29.709 64.365-64.525.713-18.988-6.462-36.301-18.507-48.929z" fill="#b1e4f9"/></g></g><g><g><g><path d="m142.256 300.548h13v46.296h-13z" fill="#fff"/></g></g><g><g><path d="m142.257 300.549h13v46.295h-13z" fill="#fff" transform="matrix(.5 -.866 .866 .5 -205.951 290.676)"/></g></g><g><g><path d="m125.609 317.197h46.295v13h-46.295z" fill="#fff" transform="matrix(.866 -.5 .5 .866 -141.923 117.751)"/></g></g></g><g><g><g><path d="m251.495 355.208h13v46.295h-13z" fill="#fff"/></g></g><g><g><path d="m251.495 355.208h13v46.295h-13z" fill="#fff" transform="matrix(.5 -.866 .866 .5 -198.668 412.609)"/></g></g><g><g><path d="m234.848 371.856h46.295v13h-46.295z" fill="#fff" transform="matrix(.866 -.5 .5 .866 -154.617 179.696)"/></g></g></g><g><g><g><path d="m184.474 427.538h13v46.295h-13z" fill="#fff"/></g></g><g><g><path d="m184.474 427.538h13v46.295h-13z" fill="#fff" transform="matrix(.5 -.866 .866 .5 -294.819 390.732)"/></g></g><g><g><path d="m167.826 444.186h46.295v13h-46.295z" fill="#fff" transform="matrix(.866 -.5 .5 .866 -199.763 155.875)"/></g></g></g><g><g><g><path d="m344.162 312.123h13v46.295h-13z" fill="#fff"/></g></g><g><g><path d="m344.162 312.122h13v46.296h-13z" fill="#fff" transform="matrix(.5 -.866 .866 .5 -115.023 471.312)"/></g></g><g><g><path d="m327.514 328.77h46.296v13h-46.296z" fill="#fff" transform="matrix(.866 -.5 .5 .866 -120.658 220.258)"/></g></g></g><g><g><circle cx="170.297" cy="384.142" fill="#b1e4f9" r="5.787"/></g></g><g><g><circle cx="312.448" cy="456.472" fill="#b1e4f9" r="5.787"/></g></g><g><g><circle cx="232.413" cy="304.842" fill="#b1e4f9" r="7.281"/></g></g><g><g><circle cx="351.614" cy="392.265" fill="#b1e4f9" r="8.123"/></g></g><g><g><circle cx="113.241" cy="372.568" fill="#b1e4f9" r="5.787"/></g></g><g><g><g><path d="m427.681 185.255c-9.05-3.415-15.728-11.15-17.395-20.679-4.873-27.856-22.426-78.936-85.657-83.336-8.565-.596-16.869 1.309-24.667 3.686-13.242 4.036-27.608-.677-35.657-11.941-17.229-24.111-45.447-39.828-77.341-39.828-52.469 0-95.003 42.534-95.003 95.003 0 8.769 2.572 20.164 5.48 30.249 3.265 11.322-1.761 23.548-12.204 29.008-14.044 7.342-23.629 22.049-23.629 38.995 0 24.286 19.688 43.974 43.974 43.974h306.575c24.286 0 43.974-19.688 43.974-43.974.001-18.823-11.824-34.883-28.45-41.157z" fill="#fff"/></g></g><g><g><path d="m164.46 226.411c0-16.946 9.585-31.652 23.629-38.995 10.442-5.459 15.469-17.686 12.203-29.008-2.908-10.084-5.48-21.48-5.48-30.249 0-33.518 17.36-62.98 43.577-79.891-14.821-9.562-32.474-15.112-51.425-15.112-52.469 0-95.003 42.534-95.003 95.003 0 8.769 2.572 20.164 5.48 30.249 3.265 11.322-1.761 23.548-12.203 29.008-14.044 7.342-23.629 22.049-23.629 38.995 0 24.286 19.688 43.974 43.974 43.974h102.851c-24.286 0-43.974-19.688-43.974-43.974z" fill="#b1e4f9"/></g></g></g><g><g><circle cx="445.509" cy="319.334" fill="#b1e4f9" r="7.211"/></g></g><g><g><circle cx="60.007" cy="310.472" fill="#b1e4f9" r="7.14"/></g></g></g></svg>