<svg xmlns="http://www.w3.org/2000/svg" xmlns:xlink="http://www.w3.org/1999/xlink" version="1.1" style="" xml:space="preserve" width="510" height="510"><rect id="backgroundrect" width="100%" height="100%" x="0" y="0" fill="none" stroke="none"/>


<g class="currentLayer" style=""><title>Layer 1</title><g style="opacity:0.5;" id="svg_1" class="">
	<path style="fill:#FFCE54;" d="M471.655,267.808c0,119.243-96.603,215.847-215.846,215.847S39.963,387.051,39.963,267.808   c0-119.239,96.603-215.842,215.846-215.842S471.655,148.569,471.655,267.808z" id="svg_2"/>
</g><g style="opacity:0.4;" id="svg_3" class="">
	<path style="fill:#FFCE54;" d="M443.675,267.808c0,103.7-84.089,187.866-187.866,187.866   c-103.778,0-187.866-84.166-187.866-187.866c0-103.699,84.088-187.862,187.866-187.862S443.675,164.109,443.675,267.808z" id="svg_4"/>
</g><g style="opacity:0.6;" id="svg_5" class="" fill-opacity="1" fill="#fabb18">
	<path style="" d="M415.695,267.808c0,88.227-71.551,159.886-159.886,159.886   c-88.336,0-159.886-71.659-159.886-159.886c0-88.226,71.55-159.882,159.886-159.882   C344.144,107.926,415.695,179.583,415.695,267.808z" id="svg_6" fill="#fabb18"/>
</g><polygon style="" points="323.76,463.669 307.772,479.657 203.846,479.657 187.857,463.669 187.857,407.709   323.76,407.709 " id="svg_7" class="" fill-opacity="1" fill="#dadada"/><g style="opacity:0.4;" id="svg_8">
	<polygon style="fill:#FFFFFF;" points="203.846,407.709 187.857,407.709 187.857,463.669 203.846,479.657 219.835,479.657    203.846,463.669  " id="svg_9"/>
</g><g style="opacity:0.3;" id="svg_10">
	<polygon points="307.772,407.709 323.76,407.709 323.76,463.669 307.772,479.657 291.783,479.657 307.772,463.669  " id="svg_11"/>
</g><path style="fill:#E6E9ED;" d="M387.714,267.808c0-72.85-59.059-131.906-131.905-131.906s-131.906,59.056-131.906,131.906  c0,47.958,25.677,89.812,63.954,112.904v26.996H323.76v-26.996C362.038,357.62,387.714,315.766,387.714,267.808z" id="svg_12" class=""/><g id="svg_13" class="">
	<path style="fill:#FFFFFF;" d="M255.809,135.902c2.701,0,5.348,0.223,8.002,0.402c-69.107,4.153-123.919,61.351-123.919,131.504   c0,71.16,47.965,112.904,47.965,112.904c-38.277-23.093-63.954-64.946-63.954-112.904   C123.903,194.958,182.963,135.902,255.809,135.902z" id="svg_14"/>
	<path style="fill:#FFFFFF;" d="M255.817,135.902c-2.701,0-5.348,0.223-8.002,0.402c69.107,4.153,123.919,61.351,123.919,131.504   c0,71.16-47.966,112.904-47.966,112.904c38.277-23.093,63.954-64.946,63.954-112.904   C387.722,194.958,328.664,135.902,255.817,135.902z" id="svg_15"/>
</g><path style="" d="M219.835,479.657c0,0,7.994,15.989,35.975,15.989c27.979,0,35.974-15.989,35.974-15.989H219.835z" id="svg_16" class="" fill-opacity="1" fill="#dadada"/><g style="opacity:0.4;" id="svg_17">
	<path style="fill:#FFFFFF;" d="M235.823,479.657h-15.988c0,0,7.994,15.989,35.975,15.989c2.888,0,5.52-0.203,7.994-0.516   C242.303,492.476,235.823,479.657,235.823,479.657z" id="svg_18"/>
</g><g style="opacity:0.3;" id="svg_19">
	<path d="M275.795,479.657h15.988c0,0-7.994,15.989-35.974,15.989c-2.889,0-5.52-0.203-7.995-0.516   C269.315,492.476,275.795,479.657,275.795,479.657z" id="svg_20"/>
</g><g style="opacity:0.2;" id="svg_21">
	<rect x="187.85699462890625" y="399.7170104980469" width="135.89999389648438" height="7.99399995803833" id="svg_22"/>
</g><g id="svg_23" class="" fill="#ecabec" fill-opacity="1">
	<path style="" d="M319.771,231.834c8.877,0,15.988,7.116,15.988,15.989c0,8.872-7.111,15.988-15.988,15.988   c6.636,0,11.991,5.355,11.991,11.991c0,4.958-2.959,9.119-7.198,11.031c5.598,10.634,3.92,23.905-4.949,32.781   c-6.636,6.55-15.59,9.188-24.146,7.831h-0.078c-0.641,3.833-2.482,7.518-5.441,10.469c-7.83,7.838-20.462,7.838-28.293,0   c-3.763-3.833-5.761-8.791-5.839-13.826v-36.295v-55.959v-31.977c0-8.873,7.112-15.989,15.988-15.989s15.988,7.116,15.988,15.989   c0,2.236-0.476,4.317-1.28,6.233c3.521-3.115,8.158-4.953,13.271-4.953c11.109,0,19.986,8.873,19.986,19.985   c0,4.075-1.202,7.913-3.357,11.031C317.531,231.994,318.655,231.834,319.771,231.834z" id="svg_24" fill="#ecabec" fill-opacity="1"/>
	<path style="" d="M255.817,287.794v36.295c-0.078,5.035-1.999,9.993-5.84,13.826c-7.83,7.838-20.462,7.838-28.292,0   c-2.959-2.951-4.802-6.636-5.442-10.469h-0.078c-8.471,1.357-17.511-1.281-24.062-7.831c-8.876-8.876-10.555-22.147-5.035-32.781   c-4.239-1.912-7.198-6.073-7.198-11.031c0-6.636,5.355-11.991,11.992-11.991c-8.876,0-15.989-7.116-15.989-15.988   c0-8.873,7.112-15.989,15.989-15.989c1.202,0,2.319,0.16,3.357,0.32c-2.155-3.119-3.357-6.956-3.357-11.031   c0-11.113,8.955-19.985,19.986-19.985c5.113,0,9.751,1.838,13.271,4.953c-0.804-1.916-1.28-3.997-1.28-6.233   c0-8.873,7.112-15.989,15.989-15.989s15.989,7.114,15.989,15.987v31.977V287.794z" id="svg_25" fill="#ecabec" fill-opacity="1"/>
</g><g style="opacity:0.5;" id="svg_26">
	<path style="fill:#FFFFFF;" d="M233.114,206.09c-0.804-1.916-1.28-3.997-1.28-6.233c0-7.483,5.083-13.662,11.992-15.431   c-1.28-0.328-2.608-0.558-3.997-0.558c-8.876,0-15.989,7.116-15.989,15.989c0,0.601,0.117,1.163,0.18,1.741   C227.462,202.308,230.585,203.854,233.114,206.09z" id="svg_27"/>
	<path style="fill:#FFFFFF;" d="M229.679,337.915c-2.959-2.951-4.802-6.636-5.441-10.469h-0.078   c-8.471,1.357-17.511-1.281-24.061-7.831c-8.876-8.876-10.555-22.147-5.036-32.781c-4.239-1.912-7.198-6.073-7.198-11.031   c0-6.636,5.356-11.991,11.992-11.991c-8.876,0-15.989-7.116-15.989-15.988c0-8.873,7.112-15.989,15.989-15.989   c1.203,0,2.319,0.16,3.357,0.32c-2.154-3.119-3.357-6.956-3.357-11.031c0-9.727,6.862-17.737,15.965-19.583   c-1.28-0.25-2.607-0.402-3.974-0.402c-11.031,0-19.986,8.873-19.986,19.985c0,4.075,1.202,7.913,3.357,11.031   c-1.038-0.16-2.155-0.32-3.357-0.32c-8.876,0-15.989,7.116-15.989,15.989c0,8.872,7.112,15.988,15.989,15.988   c-6.636,0-11.992,5.355-11.992,11.991c0,4.958,2.959,9.119,7.198,11.031c-5.52,10.634-3.841,23.905,5.035,32.781   c6.55,6.55,15.591,9.188,24.062,7.831h0.078c0.64,3.833,2.483,7.518,5.442,10.469c4.941,4.949,11.788,6.753,18.143,5.457   C236.112,342.614,232.568,340.811,229.679,337.915z" id="svg_28"/>
</g><g style="opacity:0.5;" id="svg_29">
	<path style="fill:#FFFFFF;" d="M278.519,206.09c0.805-1.916,1.28-3.997,1.28-6.233c0-7.483-5.082-13.662-11.991-15.431   c1.28-0.328,2.607-0.558,3.997-0.558c8.876,0,15.988,7.116,15.988,15.989c0,0.601-0.116,1.163-0.179,1.741   C284.171,202.308,281.048,203.854,278.519,206.09z" id="svg_30"/>
	<path style="fill:#FFFFFF;" d="M281.955,337.915c2.959-2.951,4.801-6.636,5.441-10.469h0.078c8.47,1.357,17.511-1.281,24.061-7.831   c8.877-8.876,10.555-22.147,5.035-32.781c4.239-1.912,7.198-6.073,7.198-11.031c0-6.636-5.355-11.991-11.991-11.991   c8.876,0,15.988-7.116,15.988-15.988c0-8.873-7.112-15.989-15.988-15.989c-1.202,0-2.318,0.16-3.357,0.32   c2.155-3.119,3.357-6.956,3.357-11.031c0-9.727-6.862-17.737-15.965-19.583c1.279-0.25,2.607-0.402,3.973-0.402   c11.031,0,19.986,8.873,19.986,19.985c0,4.075-1.202,7.913-3.357,11.031c1.039-0.16,2.155-0.32,3.357-0.32   c8.877,0,15.988,7.116,15.988,15.989c0,8.872-7.111,15.988-15.988,15.988c6.636,0,11.991,5.355,11.991,11.991   c0,4.958-2.959,9.119-7.198,11.031c5.52,10.634,3.842,23.905-5.035,32.781c-6.55,6.55-15.59,9.188-24.061,7.831h-0.078   c-0.641,3.833-2.482,7.518-5.441,10.469c-4.942,4.949-11.789,6.753-18.144,5.457C275.521,342.614,279.066,340.811,281.955,337.915z   " id="svg_31"/>
</g>
	
	
	
	
	
	
	
	
	
	
	
	
	
	
	
	
	
	<path style="fill:#3A3847;" d="M-222.03114105319978,245.68559842586518 H-301.97314105319975 c-2.21,0 -3.997,-1.787 -3.997,-3.997 c0,-2.209 1.787,-3.997 3.997,-3.997 h79.942 c2.21,0 3.998,1.788 3.998,3.997 C-218.03314105319976,243.89859842586515 -219.82114105319977,245.68559842586518 -222.03114105319978,245.68559842586518 z" id="svg_50" class=""/>
	
	
	<path style="fill:#3A3847;" d="M397.2083052358627,176.91177727413177 c-1.374,0 -2.725,-0.7140000000000006 -3.459,-1.999 c-1.108,-1.913 -0.452,-4.356 1.46,-5.461 l69.232,-39.971 c1.912,-1.097 4.356,-0.457 5.457,1.464 c1.108,1.912 0.452,4.356 -1.46,5.461 l-69.232,39.971 C398.57530523586274,176.73977727413177 397.88830523586273,176.91177727413177 397.2083052358627,176.91177727413177 z" id="svg_53" class=""/><path style="" d="M397.2083052358627,176.91177727413177 c-1.374,0 -2.725,-0.7140000000000006 -3.459,-1.999 c-1.108,-1.913 -0.452,-4.356 1.46,-5.461 l69.232,-39.971 c1.912,-1.097 4.356,-0.457 5.457,1.464 c1.108,1.912 0.452,4.356 -1.46,5.461 l-69.232,39.971 C398.57530523586274,176.73977727413177 397.88830523586273,176.91177727413177 397.2083052358627,176.91177727413177 z" class="" id="svg_32" fill-opacity="1" fill="#FABB18"/>
	<path style="" d="M337.2773821401596,113.24950804805755 c-0.680000000000001,0 -1.366,-0.17200000000000001 -1.999,-0.535 c-1.912,-1.105 -2.568,-3.548 -1.46,-5.461 l39.972,-69.228 c1.101,-1.917 3.552,-2.561 5.457,-1.464 c1.913,1.104 2.568,3.548 1.46,5.461 l-39.972,69.228 C340.0023821401596,112.53450804805755 338.6523821401596,113.24950804805755 337.2773821401596,113.24950804805755 z" id="svg_54" class="" fill-opacity="1" fill="#FABB18"/>
	
	
	
	
	
	
	
	
	
<g id="svg_64">
</g><g id="svg_65">
</g><g id="svg_66">
</g><g id="svg_67">
</g><g id="svg_68">
</g><g id="svg_69">
</g><g id="svg_70">
</g><g id="svg_71">
</g><g id="svg_72">
</g><g id="svg_73">
</g><g id="svg_74">
</g><g id="svg_75">
</g><g id="svg_76">
</g><g id="svg_77">
</g><g id="svg_78">
</g><path style="fill:#3A3847;" d="M234.33846500492095,344.8059258375168 c-6.401,0 -12.428,-2.507 -16.972,-7.05 c-3.49,-3.49 -5.7620000000000005,-7.861 -6.558,-12.632 c-1.569,-7.619 0.8750000000000009,-15.646 6.558,-21.313 c1.561,-1.562 4.091,-1.562 5.652,0 c1.562,1.562 1.562,4.091 0,5.651 c-3.779,3.771 -5.402,9.072 -4.348,14.193 c0.546,3.271 2.037,6.145 4.348,8.447 c6.074,6.074 16.566,6.074 22.64,0 c2.943,-2.936 4.606,-6.87 4.668,-11.063 c0.039000000000000055,-2.209 1.858,-3.786 4.06,-3.935 c2.209,0.039000000000000055 3.966,1.851 3.935,4.06 c-0.10200000000000002,6.285 -2.584,12.171 -7.011,16.59 C246.76646500492095,342.2989258375168 240.74046500492096,344.8059258375168 234.33846500492095,344.8059258375168 z" id="svg_33" class=""/><path style="fill:#3A3847;" d="M210.35546500492097,242.12092583751678 c-8.072,0 -15.544,-4.021 -19.97,-10.754 c-2.608,-3.775 -4.013,-8.377 -4.013,-13.229 c0,-13.225 10.758000000000001,-23.982 23.983,-23.982 c5.925,0 11.577,2.115 15.918,5.957 c1.6550000000000002,1.464 1.812,3.989 0.3440000000000006,5.644 c-1.468,1.6470000000000002 -3.997,1.796 -5.6370000000000005,0.3440000000000006 c-2.8810000000000002,-2.549 -6.651,-3.95 -10.625,-3.95 c-8.814,0 -15.989,7.171 -15.989,15.988 c0,3.225 0.914,6.25 2.646,8.76 c2.998,4.555 7.963,7.229 13.342,7.229 c2.209,0 3.997,1.788 3.997,3.998 C214.35246500492096,240.3329258375168 212.56446500492095,242.12092583751678 210.35546500492097,242.12092583751678 z" id="svg_34" class=""/><path style="fill:#3A3847;" d="M185.57646500492095,287.8459258375168 c-0.555,0 -1.108,-0.11700000000000015 -1.6470000000000002,-0.3520000000000003 c-5.886,-2.67 -9.548,-8.29 -9.548,-14.677 c0,-8.821 7.175,-15.988 15.989,-15.988 c2.209,0 3.997,1.788 3.997,3.997 s-1.788,3.997 -3.997,3.997 c-4.411,0 -7.995,3.591 -7.995,7.994 c0,3.201 1.858,6.043 4.849,7.386 c2.014,0.913 2.904,3.279 1.998,5.293 C188.55146500492097,286.9719258375168 187.09846500492097,287.8459258375168 185.57646500492095,287.8459258375168 z" id="svg_35" class=""/><path style="fill:#3A3847;" d="M190.36946500492095,264.8229258375168 c-11.023,0 -19.986,-8.966 -19.986,-19.985 s8.962,-19.986 19.986,-19.986 c1.421,0 2.74,0.17900000000000021 3.966,0.3670000000000003 c2.178,0.3360000000000006 3.677,2.3770000000000002 3.341,4.5600000000000005 c-0.3360000000000006,2.182 -2.396,3.669 -4.559,3.341 c-0.8510000000000006,-0.132 -1.7640000000000002,-0.273 -2.748,-0.273 c-6.613,0 -11.992,5.3790000000000004 -11.992,11.992 c0,6.612 5.3790000000000004,11.991 11.992,11.991 c2.209,0 3.997,1.788 3.997,3.997 S192.57946500492096,264.8229258375168 190.36946500492095,264.8229258375168 z" id="svg_36" class=""/><path style="fill:#3A3847;" d="M238.33546500492096,216.8569258375168 c-8.088,0 -15.31,-4.793 -18.401,-12.214 c-1.046,-2.51 -1.585,-5.125 -1.585,-7.771 c0,-11.02 8.962,-19.986 19.986,-19.986 c11.023,0 19.986,8.966 19.986,19.986 c0,2.209 -1.788,3.997 -3.997,3.997 c-2.21,0 -3.998,-1.788 -3.998,-3.997 c0,-6.612 -5.3790000000000004,-11.992 -11.991,-11.992 c-6.613,0 -11.992,5.3790000000000004 -11.992,11.992 c0,1.577 0.3280000000000005,3.154 0.9680000000000006,4.6880000000000015 c1.85,4.442 6.175,7.303 11.023,7.303 c2.209,0 3.997,1.788 3.997,3.997 C242.33246500492095,215.0699258375168 240.54546500492097,216.8569258375168 238.33546500492096,216.8569258375168 z" id="svg_37" class=""/><path style="fill:#3A3847;" d="M210.33246500492095,328.8009258375168 c-8.361,0.008000000000000014 -16.527,-3.325 -22.547,-9.345 c-9.922,-9.915 -12.233,-24.966 -5.753,-37.45 c1.476,-2.88 3.419,-5.534 5.761,-7.861 c12.429,-12.443 32.727,-12.404 45.218,0.07800000000000011 c1.562,1.562 1.562,4.091 0,5.652 c-1.561,1.562 -4.091,1.562 -5.652,0 c-9.376,-9.368 -24.592,-9.399000000000001 -33.921,-0.07800000000000011 c-1.7560000000000002,1.749 -3.201,3.732 -4.3100000000000005,5.8790000000000004 c-4.871,9.392 -3.138,20.681 4.3100000000000005,28.129 c5.3950000000000005,5.3950000000000005 13.046,7.916 20.603,6.713 c2.1310000000000002,-0.37400000000000044 4.224,1.125 4.583,3.311 c0.3430000000000006,2.178 -1.1400000000000001,4.231 -3.318,4.575 C213.65046500492096,328.6679258375168 211.98746500492095,328.8009258375168 210.33246500492095,328.8009258375168 z" id="svg_38" class=""/><path style="fill:#3A3847;" d="M274.309465004921,344.8059258375168 c-6.401,0 -12.429,-2.507 -16.973,-7.05 c-4.434,-4.513 -6.917,-10.398 -7.01,-16.59 c-0.031000000000000055,-2.209 1.725,-4.021 3.935,-4.06 c2.2640000000000002,0.10200000000000002 4.028,1.726 4.06,3.935 c0.06300000000000011,4.13 1.7320000000000002,8.072 4.699,11.094 c6.012,6.012 16.535,6.043 22.609,-0.031000000000000055 c2.311,-2.303 3.802,-5.176 4.325,-8.307 c1.077,-5.2620000000000005 -0.547,-10.563 -4.325,-14.334 c-1.562,-1.561 -1.562,-4.09 0,-5.651 s4.091,-1.562 5.652,0 c5.684,5.667 8.127,13.693 6.534,21.453 c-0.772,4.63 -3.045,9.001 -6.534,12.491 C286.73846500492095,342.2989258375168 280.71246500492094,344.8059258375168 274.309465004921,344.8059258375168 z" id="svg_39" class=""/><path style="fill:#3A3847;" d="M298.292465004921,242.12092583751678 c-2.209,0 -3.996,-1.788 -3.996,-3.997 c0,-2.21 1.787,-3.998 3.996,-3.998 c5.38,0 10.345,-2.6740000000000004 13.288,-7.155 c1.788,-2.584 2.701,-5.609 2.701,-8.834 c0,-8.966 -7.026,-15.988 -15.989,-15.988 c-3.973,0 -7.744,1.401 -10.625,3.95 c-1.6390000000000002,1.452 -4.176,1.304 -5.6370000000000005,-0.3440000000000006 c-1.467,-1.6550000000000002 -1.311,-4.18 0.3440000000000006,-5.644 c4.341,-3.841 9.993,-5.957 15.918,-5.957 c13.226,0 23.983,10.758000000000001 23.983,23.982 c0,4.853 -1.405,9.455 -4.067,13.303 C313.83646500492097,238.1009258375168 306.36546500492096,242.12092583751678 298.292465004921,242.12092583751678 z" id="svg_40" class=""/><path style="fill:#3A3847;" d="M323.071465004921,287.8459258375168 c-1.521,0 -2.975,-0.8740000000000009 -3.646,-2.35 c-0.905,-2.014 -0.016000000000000028,-4.38 1.999,-5.293 c2.99,-1.343 4.848,-4.185 4.848,-7.386 c0,-4.4030000000000005 -3.583,-7.994 -7.994,-7.994 c-2.209,0 -3.997,-1.788 -3.997,-3.997 s1.788,-3.997 3.997,-3.997 c8.814,0 15.988,7.167 15.988,15.988 c0,6.3870000000000005 -3.661,12.007 -9.548,14.677 C324.18046500492096,287.7279258375168 323.626465004921,287.8459258375168 323.071465004921,287.8459258375168 z" id="svg_41" class=""/><path style="fill:#3A3847;" d="M318.278465004921,264.8229258375168 c-2.209,0 -3.997,-1.788 -3.997,-3.997 s1.788,-3.997 3.997,-3.997 c6.612,0 11.991,-5.3790000000000004 11.991,-11.991 c0,-6.613 -5.3790000000000004,-11.992 -11.991,-11.992 c-0.929,0 -1.858,0.14800000000000021 -2.787,0.281 c-2.146,0.3050000000000003 -4.216,-1.198 -4.5280000000000005,-3.392 c-0.31200000000000044,-2.186 1.202,-4.208 3.3890000000000002,-4.524 c1.304,-0.18800000000000025 2.623,-0.3590000000000003 3.927,-0.3590000000000003 c11.023,0 19.985,8.966 19.985,19.986 S329.302465004921,264.8229258375168 318.278465004921,264.8229258375168 z" id="svg_42" class=""/><path style="fill:#3A3847;" d="M270.31246500492097,216.8569258375168 c-2.21,0 -3.997,-1.788 -3.997,-3.997 s1.787,-3.997 3.997,-3.997 c4.849,0 9.173,-2.861 11.016,-7.295 c0.647000000000001,-1.542 0.976,-3.119 0.976,-4.696 c0,-6.612 -5.3790000000000004,-11.992 -11.991,-11.992 s-11.991,5.3790000000000004 -11.991,11.992 c0,2.209 -1.788,3.997 -3.997,3.997 c-2.21,0 -3.998,-1.788 -3.998,-3.997 c0,-11.02 8.962,-19.986 19.986,-19.986 s19.985,8.966 19.985,19.986 c0,2.646 -0.538,5.2620000000000005 -1.592,7.779 C285.62246500492097,212.0639258375168 278.40046500492093,216.8569258375168 270.31246500492097,216.8569258375168 z" id="svg_43" class=""/><path style="fill:#3A3847;" d="M298.43246500492097,328.80892583751677 c-1.6860000000000008,0 -3.38,-0.125 -5.082,-0.405 c-2.186,-0.3440000000000006 -3.669,-2.39 -3.326,-4.575 c0.3440000000000006,-2.178 2.444,-3.685 4.575,-3.311 c7.581,1.172 15.153,-1.248 20.712,-6.736 c7.44,-7.44 9.143,-18.729 4.224,-28.066 c-1.054,-2.186 -2.459,-4.138 -4.239,-5.918 c-9.329,-9.321 -24.545,-9.282 -33.921,0.07800000000000011 c-1.562,1.562 -4.091,1.562 -5.652,0 s-1.562,-4.091 0,-5.652 c12.499,-12.49 32.789,-12.521 45.226,-0.07800000000000011 c2.412,2.42 4.341,5.099 5.723,7.963 c6.495,12.336 4.224,27.395 -5.723,37.349 C314.78846500492097,325.52992583751677 306.79446500492094,328.80892583751677 298.43246500492097,328.80892583751677 z" id="svg_44" class=""/><path style="fill:#3A3847;" d="M306.28746500492093,480.66992583751676 H202.36146500492097 c-1.062,0 -2.077,-0.4220000000000003 -2.826,-1.172 l-15.989,-15.988 c-0.7500000000000009,-0.7500000000000009 -1.171,-1.7650000000000001 -1.171,-2.826 v-55.96 c0,-2.21 1.788,-3.997 3.997,-3.997 c2.21,0 3.998,1.787 3.998,3.997 v54.305 l13.646,13.646 h100.616 l13.646,-13.646 v-54.305 c0,-2.21 1.788,-3.997 3.997,-3.997 c2.21,0 3.997,1.787 3.997,3.997 v55.96 c0,1.062 -0.4220000000000003,2.076 -1.171,2.826 l-15.988,15.988 C308.36346500492095,480.2479258375168 307.34846500492097,480.66992583751676 306.28746500492093,480.66992583751676 z" id="svg_45" class=""/><path style="fill:#3A3847;" d="M188.22966471050046,432.70292659774816 c-1.8058983413577079,0 -3.3072693128585815,-1.4137555550336844 -3.393183459103107,-3.227309612393379 c-0.09271922713518162,-1.8790529609322544 1.3482566514611245,-3.4799482404589654 3.227309612393379,-3.572667467594147 l6.800827715098858,-0.3325983285307888 l122.40384061533211,-6.468229386568069 c1.879903596043588,-0.11313446980714799 3.47314315956831,1.3618668132424356 3.5599079409241674,3.2281602475047113 c0.09271922713518162,1.8790529609322544 -1.3474060163497925,3.4790976053476332 -3.227309612393379,3.5718168324828152 l-6.799977079987526,0.3325983285307888 l-122.40384061533211,6.468229386568069 C188.34279918030757,432.70292659774816 188.282404087403,432.70292659774816 188.22966471050046,432.70292659774816 z" id="svg_46" class=""/><path style="fill:#3A3847;" d="M188.37880498911312,458.9247326084295 c-1.8851737876534471,0 -3.452452042579651,-1.4767046673893935 -3.5421376537680627,-3.36898226583004 c-0.09678942197561287,-1.9624277299642556 1.4074425122141838,-3.632711241304875 3.36898226583004,-3.7295006632804872 l7.099370905458927,-0.3471987522244461 l127.77713260573148,-6.752172153234482 c1.9624277299642556,-0.06215834438800818 3.6256074305176735,1.4216501337885856 3.7161810180544848,3.36898226583004 c0.09678942197561287,1.9615397536158565 -1.4065545358657838,3.632711241304875 -3.36898226583004,3.7295006632804872 l-7.098482929110527,0.34631077587604625 l-127.77713260573148,6.752172153234482 C188.4969058434503,458.9247326084295 188.4338595227139,458.9247326084295 188.37880498911312,458.9247326084295 z" id="svg_47" class=""/><path style="fill:#3A3847;" d="M322.27546500492093,408.7209258375168 H186.37246500492097 c-2.209,0 -3.997,-1.788 -3.997,-3.997 V379.9449258375168 c-40.096,-25.076 -63.954,-67.936 -63.954,-115.121 c0,-74.938 60.964,-135.903 135.903,-135.903 c74.938,0 135.902,60.964 135.902,135.903 c0,47.186 -23.857,90.045 -63.954,115.121 v24.779 C326.27246500492095,406.9329258375168 324.48546500492097,408.7209258375168 322.27546500492093,408.7209258375168 zM190.36946500492095,400.7269258375168 h127.909 V377.7049258375168 c0,-1.397 0.7340000000000009,-2.693 1.928,-3.428 c38.84,-23.429 62.026,-64.345 62.026,-109.453 c0,-70.527 -57.381,-127.908 -127.908,-127.908 c-70.528,0 -127.909,57.381 -127.909,127.908 c0,45.108 23.187,86.024 62.026,109.453 c1.194,0.7340000000000009 1.928,2.03 1.928,3.428 V400.7269258375168 z" id="svg_48" class=""/><path style="fill:#3A3847;" d="M254.32446500492097,496.65792583751676 c-30.104,0 -39.176,-17.457 -39.55,-18.198 c-0.984,-1.976 -0.18700000000000025,-4.38 1.788,-5.363 c1.976,-0.9680000000000006 4.356,-0.19500000000000028 5.348,1.7570000000000001 c0.31200000000000044,0.6010000000000006 7.573,13.811 32.415,13.811 c24.88,0 32.117,-13.249 32.414,-13.818 c1.022,-1.937 3.419,-2.717 5.371,-1.718 s2.748,3.372 1.7650000000000001,5.332 C293.499465004921,479.20092583751676 284.42846500492095,496.65792583751676 254.32446500492097,496.65792583751676 z" id="svg_49" class=""/><path style="" d="M254.32446500492097,96.94292583751678 c-2.21,0 -3.998,-1.788 -3.998,-3.997 V13.002925837516784 c0,-2.209 1.788,-3.997 3.998,-3.997 c2.209,0 3.997,1.788 3.997,3.997 v79.943 C258.321465004921,95.15492583751679 256.53346500492097,96.94292583751678 254.32446500492097,96.94292583751678 z" id="svg_55" class="" fill-opacity="1" fill="#FABB18"/><path style="" d="M168.38546500492095,119.96592583751678 c-1.374,0 -2.725,-0.7140000000000006 -3.458,-1.999 l-39.972,-69.228 c-1.108,-1.913 -0.453,-4.356 1.46,-5.461 c1.905,-1.108 4.356,-0.457 5.457,1.464 l39.972,69.228 c1.108,1.913 0.453,4.356 -1.46,5.461 C169.75146500492096,119.79392583751678 169.06446500492095,119.96592583751678 168.38546500492095,119.96592583751678 z" id="svg_56" class="" fill-opacity="1" fill="#FABB18"/><path style="" d="M105.46946500492095,182.88192583751677 c-0.6790000000000012,0 -1.366,-0.17200000000000001 -1.999,-0.535 l-69.232,-39.971 c-1.913,-1.105 -2.568,-3.549 -1.459,-5.461 c1.101,-1.917 3.552,-2.549 5.457,-1.464 l69.231,39.971 c1.913,1.105 2.568,3.548 1.46,5.461 C108.19446500492097,182.16692583751677 106.84346500492097,182.88192583751677 105.46946500492095,182.88192583751677 z" id="svg_58" class="" fill-opacity="1" fill="#FABB18"/><path style="fill:#3A3847;" d="M254.32446500492097,325.1009258375168 c-2.21,0 -3.998,-1.788 -3.998,-3.997 V196.87192583751678 c0,-2.209 1.788,-3.997 3.998,-3.997 c2.209,0 3.997,1.788 3.997,3.997 v124.231 C258.321465004921,323.3119258375168 256.53346500492097,325.1009258375168 254.32446500492097,325.1009258375168 z" id="svg_59" class=""/><path style="fill:#3A3847;" d="M266.31546500492095,296.8009258375168 c-10.344,0 -15.356,-9.79 -15.567,-10.204 c-0.983,-1.975 -0.18700000000000025,-4.38 1.788,-5.363 c1.983,-0.9680000000000006 4.356,-0.19500000000000028 5.355,1.7650000000000001 c0.06300000000000011,0.125 3.092,5.809 8.424,5.809 c2.209,0 3.997,1.787 3.997,3.997 C270.31246500492097,295.0129258375168 268.52446500492096,296.8009258375168 266.31546500492095,296.8009258375168 z" id="svg_60" class=""/><path style="fill:#3A3847;" d="M242.33246500492095,296.8009258375168 c-2.209,0 -3.997,-1.788 -3.997,-3.997 c0,-2.21 1.788,-3.997 3.997,-3.997 c5.363,0 8.4,-5.746 8.431000000000001,-5.809 c1.007,-1.952 3.3890000000000002,-2.748 5.364,-1.741 c1.959,0.991 2.755,3.373 1.771,5.34 C257.68846500492094,287.01092583751677 252.67746500492095,296.8009258375168 242.33246500492095,296.8009258375168 z" id="svg_61" class=""/><path style="fill:#3A3847;" d="M274.309465004921,248.83492583751678 c-18.971,0 -23.983,-13.073 -23.983,-19.986 c0,-2.209 1.788,-3.997 3.998,-3.997 c2.201,0 3.981,1.776 3.997,3.9699999999999998 c0.023000000000000055,1.2690000000000001 0.6940000000000014,12.019 15.988,12.019 c2.209,0 3.997,1.788 3.997,3.997 S276.518465004921,248.83492583751678 274.309465004921,248.83492583751678 z" id="svg_62" class=""/><path style="fill:#3A3847;" d="M234.33846500492095,248.83492583751678 c-2.209,0 -3.997,-1.788 -3.997,-3.997 s1.788,-3.997 3.997,-3.997 c15.81,0 15.989,-11.504 15.989,-11.992 c0,-2.209 1.788,-3.997 3.998,-3.997 c2.209,0 3.997,1.788 3.997,3.997 C258.321465004921,235.7619258375168 253.30946500492095,248.83492583751678 234.33846500492095,248.83492583751678 z" id="svg_63" class=""/></g></svg>