<svg id="Capa_1" enable-background="new 0 0 512 512" height="512" viewBox="0 0 512 512" width="512" xmlns="http://www.w3.org/2000/svg"><g><path d="m512 256c0 63.11-22.84 120.88-60.69 165.51-19.16 22.58-51.821-3.024-77.661 11.816-3.57 2.06 2.461 48.834-1.219 50.714-12.92 6.62-26.49 12.16-40.57 16.53-23.97 7.43-53.29-12.708-79.7-12.708-36.61 0-53.187-4.762-84.687-18.622-4.57-2.01-15.966 1.827-20.396-.443-11.62-5.94-17.857-19.9-28.377-27.49-17.54-12.66-26.095-19.314-39.905-35.914-4.56-5.48-28.576 3.068-32.666-2.772-29.069-41.531-46.129-92.081-46.129-146.621 0-141.38 114.62-256 256-256s256 114.62 256 256z" fill="#78c2a4"/><g><path d="m331.86 500.57c-23.97 7.43-49.45 11.43-75.86 11.43-41.91 0-81.469-10.074-116.39-27.937-11.64-5.954-14.473-21.066-24.998-28.666 15.25-24.67 34.247-32.808 65.387-32.808h65.71c44.921.001 81.841 34.201 86.151 77.981z" fill="#dd5790"/><path d="m237.6 422.59c-41.38 0-75.99 29.03-84.53 67.86-4.574-2.008-9.076-4.147-13.504-6.412-11.624-5.946-10.31-28.451-20.825-36.04 15.25-24.67 30.119-25.408 61.259-25.408z" fill="#9d549b"/><path d="m251.643 325.931v102.573c0 10.821-4.388 20.614-11.479 27.693-7.079 7.091-16.872 11.479-27.693 11.479-7.622 0-14.736-2.171-20.741-5.947-11.063-6.918-18.431-19.217-18.431-33.225v-102.573z" fill="#ffddce"/><path d="m251.643 325.931v97.757c-5.335.751-10.775 1.132-16.318 1.132-22.762 0-44.023-6.467-62.026-17.669v-81.22z" fill="#ffcbbe"/><path d="m191.73 365.749v95.979c-11.063-6.918-18.431-19.217-18.431-33.225v-62.754z" fill="#ffcbbe"/><path d="m187.836 51.74c-42.131 0-77.39 29.322-86.547 68.666l-20.87-20.871c-14.872 14.872-17.852 37.118-8.968 54.961h-25.175c0 26.333 21.347 47.68 47.679 47.68 1.688 0 3.354-.091 4.997-.262v8.432h145.548v-158.606z" fill="#21386b"/><path d="m103.874 216.189c-18.62 18.62-18.62 48.809 0 67.429s48.809 18.62 67.429 0" fill="#26457d"/><path d="m360.47 257.702h-260.292c-16.852 0-30.513-13.661-30.513-30.513 0-16.852 13.661-30.513 30.513-30.513h260.292c16.852 0 30.513 13.661 30.513 30.513 0 16.852-13.661 30.513-30.513 30.513z" fill="#ffcbbe"/><path d="m100.178 240.224c-7.188 0-13.035-5.848-13.035-13.035 0-7.188 5.848-13.035 13.035-13.035h260.292c7.188 0 13.035 5.848 13.035 13.035 0 7.188-5.848 13.036-13.035 13.036h-260.292z" fill="#eaac9d"/><path d="m235.325 407.152c-65 0-117.692-52.692-117.692-117.692v-83.443c0-64.999 52.692-117.692 117.692-117.692h65.591c28.774 0 52.101 23.326 52.101 52.101v149.034c0 64.999-52.693 117.692-117.692 117.692z" fill="#ffddce"/><path d="m264.368 403.537c-9.288 2.359-19.013 3.608-29.037 3.608-65.003 0-117.698-52.682-117.698-117.685v-83.442c0-65.003 52.694-117.698 117.698-117.698h58.062c-64.991 0-117.685 52.694-117.685 117.698v83.442c0 54.991 37.701 101.156 88.66 114.077z" fill="#ffcbbe"/><path d="m204.842 227.812c-8.254 0-14.945-6.691-14.945-14.945v-31.135c0-8.254 6.691-14.945 14.945-14.945 8.254 0 14.945 6.691 14.945 14.945v31.135c0 8.253-6.691 14.945-14.945 14.945z" fill="#21386b"/><path d="m297.003 227.812c-8.254 0-14.945-6.691-14.945-14.945v-31.135c0-8.254 6.691-14.945 14.945-14.945 8.254 0 14.945 6.691 14.945 14.945v31.135c0 8.253-6.691 14.945-14.945 14.945z" fill="#21386b"/><path d="m265.867 258.324h-29.89v-155.054c0-8.254 6.691-14.945 14.945-14.945 8.254 0 14.945 6.691 14.945 14.945z" fill="#ffcbbe"/><path d="m249.647 337.479h-31.136c-6.378 0-11.548-5.17-11.548-11.548s5.17-11.548 11.548-11.548h31.136c6.378 0 11.548 5.17 11.548 11.548.001 6.377-5.17 11.548-11.548 11.548z" fill="#26457d"/><path d="m149.396 66.708v17.745c-22.893 8.385-39.231 30.367-39.231 56.165v56.058h8.239c29.497 0 53.409-23.912 53.409-53.409v-35.876h25.08c21.915 0 39.681-17.766 39.681-39.681v-1.002z" fill="#21386b"/><path d="m343.452 64.224 26.602-26.602c-25.081-25.081-65.745-25.081-90.826 0v-37.622c-35.47 0-64.224 28.754-64.224 64.224s28.754 64.224 64.224 64.224h128.447c0-35.471-28.754-64.224-64.223-64.224z" fill="#26457d"/><path d="m268.823 236.391h-24.078c-9.247 0-16.744 7.497-16.744 16.744 0 9.247 7.497 16.744 16.744 16.744h24.078c9.247 0 16.744-7.497 16.744-16.744 0-9.247-7.496-16.744-16.744-16.744z" fill="#ffcbbe"/></g><g><circle cx="423.643" cy="88.357" fill="#dd5790" r="88.357"/><circle cx="423.643" cy="88.357" fill="#f9f6f6" r="74.357"/><circle cx="423.643" cy="88.357" fill="#f9f6f6" r="74.357"/><path d="m439.105 161.097c-4.99 1.06-10.16 1.62-15.46 1.62-41 0-74.36-33.36-74.36-74.36s33.36-74.36 74.36-74.36c5.3 0 10.47.56 15.46 1.62-33.6 7.13-58.89 37.04-58.89 72.74s25.29 65.61 58.89 72.74z" fill="#dddaec"/><g fill="#dd5790"><path d="m384.436 127.564c-4.972-4.972-4.972-13.034 0-18.006l60.407-60.407c4.972-4.972 13.034-4.972 18.006 0 4.972 4.972 4.972 13.034 0 18.006l-60.407 60.407c-4.972 4.972-13.034 4.972-18.006 0z"/><path d="m384.436 49.151c4.972-4.972 13.034-4.972 18.006 0l60.407 60.407c4.972 4.972 4.972 13.034 0 18.006-4.972 4.972-13.034 4.972-18.006 0l-60.407-60.407c-4.972-4.972-4.972-13.034 0-18.006z"/></g></g><g><g><path d="m207.79 380.13-23.81 23.81c2.66-2.66 6.15-3.99 9.64-3.99s6.98 1.33 9.64 3.99c5.33 5.32 5.33 13.96 0 19.28l-50.88 50.88c-3.86 3.86-8.16 7.19-12.81 9.93-11.62-5.94-22.73-12.75-33.25-20.34-23.32-16.83-43.69-37.5-60.19-61.07v-64.06c0-5.14 2.08-9.79 5.45-13.16s8.03-5.46 13.16-5.46c10.29.01 18.62 8.34 18.62 18.62v23.84l55.23-55.23c3.27-3.28 7.56-4.91 11.85-4.91s8.58 1.64 11.85 4.91c6.52 6.52 6.54 17.07.07 23.62l10.07-10.08c6.57-6.57 17.49-6.73 24.01-.1.92.94 1.72 1.96 2.37 3.05 1.62 2.66 2.43 5.67 2.44 8.69 0 4.29-1.64 8.57-4.91 11.85l-12.24 12.24c6.54-6.55 17.15-6.55 23.69 0 3.27 3.27 4.91 7.55 4.91 11.84s-1.63 8.57-4.91 11.85z" fill="#ffddce"/></g><g><path d="m156.032 431.888 27.947-27.947c5.327-5.327 13.959-5.327 19.282-.003.777.777 1.438 1.627 1.989 2.525-5.251-3.219-12.209-2.558-16.758 1.991l-23.434 23.434c-2.492 2.493-6.533 2.493-9.026 0z" fill="#ffcbbe"/></g><g fill="#ffcbbe"><path d="m164.766 310.328c-2.659-1.616-5.671-2.428-8.685-2.425-4.286 0-8.576 1.633-11.848 4.906l-57.975 57.975-2.896-2.896v-5.49l55.23-55.23c3.273-3.273 7.562-4.906 11.848-4.906 4.289-.003 8.579 1.636 11.848 4.906.972.973 1.796 2.034 2.478 3.16z"/><path d="m198.811 323.658c-2.658-1.612-5.67-2.426-8.676-2.421-4.29 0-8.575 1.632-11.848 4.905l-46.626 46.626c-3.118 3.113-8.168 3.113-11.281 0l41.978-41.978 10.076-10.076c6.57-6.57 17.488-6.735 24.005-.107.925.945 1.719 1.966 2.372 3.051z"/><path d="m143.702 396.831 40.397-40.397c3.273-3.273 7.562-4.906 11.848-4.906 4.289-.003 8.579 1.636 11.848 4.906.972.972 1.796 2.034 2.478 3.16-2.659-1.616-5.671-2.428-8.685-2.425-4.286 0-8.576 1.633-11.848 4.906l-34.756 34.756c-3.116 3.116-8.167 3.116-11.282 0z"/></g><g><path d="m71.23 321.11c-2.53.94-4.8 2.41-6.67 4.29-3.37 3.37-5.45 8.02-5.45 13.16v81.05c-4.56-5.48-8.89-11.15-12.98-16.99v-64.06c0-5.14 2.08-9.79 5.45-13.16s8.03-5.45 13.17-5.45c2.28 0 4.46.41 6.48 1.16z" fill="#ffcbbe"/></g></g><g><g><path d="m451.31 421.51c-21.81 25.7-48.6 47.04-78.88 62.53-10.53-2.99-20.16-8.63-27.94-16.41l-50.88-50.88c-5.32-5.32-5.31-13.96.01-19.28 2.66-2.66 6.15-3.99 9.64-3.99s6.98 1.33 9.64 4l-23.81-23.82c-3.28-3.27-4.9-7.56-4.91-11.85 0-4.28 1.64-8.57 4.91-11.85 6.54-6.54 17.15-6.53 23.69.01l-12.24-12.24c-3.27-3.28-4.91-7.56-4.9-11.85 0-3.02.81-6.04 2.43-8.69.65-1.09 1.45-2.11 2.37-3.05.85-.86 1.76-1.61 2.73-2.24h.01c6.54-4.24 15.56-3.37 21.27 2.34l10.08 10.08c-6.48-6.55-6.46-17.1.06-23.62 3.27-3.27 7.57-4.91 11.85-4.91 4.29 0 8.58 1.63 11.85 4.91l55.23 55.23v-23.84c0-10.28 8.33-18.62 18.62-18.62 5.13 0 9.79 2.09 13.15 5.45 3.38 3.38 5.46 8.03 5.46 13.17v84.83c0 1.56.19 3.1.56 4.59z" fill="#ffddce"/></g><g><path d="m413.524 355.928 8.146 8.146-.007-31.982c0-8.881 6.223-16.32 14.545-18.166-1.315-.297-2.673-.452-4.073-.452-10.281 0-18.618 8.337-18.618 18.618z" fill="#ffcbbe"/></g><g><path d="m383.3 478.14c-3.57 2.06-7.19 4.02-10.87 5.9-10.53-2.99-20.16-8.63-27.94-16.41l-50.88-50.88c-5.32-5.32-5.31-13.96.01-19.28 1.22-1.22 2.6-2.15 4.08-2.81-2.23 5.01-1.3 11.09 2.81 15.2l50.87 50.88c8.76 8.75 19.84 14.79 31.92 17.4z" fill="#ffcbbe"/></g><g fill="#ffcbbe"><path d="m337.75 298.218c-1.616 2.659-2.428 5.671-2.425 8.685 0 4.286 1.633 8.576 4.906 11.848l39.765 39.765c3.115 3.115 3.115 8.167 0 11.282l-45.406-45.406c-3.273-3.273-4.906-7.562-4.906-11.848-.003-4.289 1.636-8.579 4.906-11.848.972-.973 2.033-1.797 3.16-2.478z"/><path d="m300.543 337.727 52.05 52.05c3.111-3.111 3.111-8.16.007-11.278l-46.627-46.627c-3.274-3.274-4.907-7.552-4.907-11.851 0-2.8.7-5.607 2.107-8.118-.969.629-1.888 1.379-2.729 2.234-.926.941-1.725 1.966-2.376 3.055-1.619 2.652-2.432 5.671-2.432 8.683-.008 4.293 1.633 8.578 4.907 11.852z"/><path d="m333.71 418.279-44.622-44.622c-3.273-3.273-4.906-7.562-4.906-11.848-.003-4.289 1.636-8.579 4.906-11.848.972-.972 2.034-1.796 3.16-2.478-1.616 2.659-2.428 5.671-2.425 8.685 0 4.286 1.633 8.576 4.906 11.848l38.982 38.982c3.114 3.114 3.114 8.165-.001 11.281z"/></g></g></g></svg>