<?xml version="1.0" encoding="iso-8859-1"?>
<!-- Generator: Adobe Illustrator 19.0.0, SVG Export Plug-In . SVG Version: 6.00 Build 0)  -->
<svg version="1.1" id="Capa_1" xmlns="http://www.w3.org/2000/svg" xmlns:xlink="http://www.w3.org/1999/xlink" x="0px" y="0px"
	 viewBox="0 0 512 512" style="enable-background:new 0 0 512 512;" xml:space="preserve">
<circle style="fill:#FFD400;" cx="256" cy="256" r="256"/>
<path style="fill:#FF9F00;" d="M511.244,275.803L310.441,75L75,330.804l181.193,181.193
	C390.827,511.898,501.14,407.87,511.244,275.803z"/>
<polygon style="fill:#444444;" points="205.235,230.335 203.75,256.849 201.842,293.119 169.106,330.804 75,330.804 75,182.611 
	168.894,182.611 169.106,182.398 "/>
<polygon style="fill:#292929;" points="203.75,256.849 201.842,293.119 169.106,330.804 75,330.804 75,256.849 "/>
<polygon style="fill:#5A5A5A;" points="310.441,75 310.441,437 169.106,330.804 169.106,182.398 "/>
<polygon style="fill:#FF3636;" points="402.215,256.849 437,291.846 422.153,306.694 387.155,271.908 352.156,306.694 
	337.31,291.846 372.095,256.849 337.31,221.85 352.156,207.003 387.155,241.789 422.153,207.003 437,221.85 "/>
<polygon style="fill:#444444;" points="169.106,256.849 310.441,256.849 310.441,437 169.106,330.804 "/>
<polygon style="fill:#F40000;" points="437,291.846 422.153,306.694 387.155,271.908 352.156,306.694 337.31,291.846 
	372.095,256.849 402.215,256.849 "/>
<g>
</g>
<g>
</g>
<g>
</g>
<g>
</g>
<g>
</g>
<g>
</g>
<g>
</g>
<g>
</g>
<g>
</g>
<g>
</g>
<g>
</g>
<g>
</g>
<g>
</g>
<g>
</g>
<g>
</g>
</svg>
