<svg id="Layer_1" enable-background="new 0 0 512 512" height="512" viewBox="0 0 512 512" width="512" xmlns="http://www.w3.org/2000/svg"><g><g><g><g><g><g id="XMLID_637_"><g id="XMLID_638_"><g id="XMLID_646_"><g id="XMLID_647_"><g id="XMLID_648_"><g id="XMLID_649_"><g id="XMLID_665_"><g id="XMLID_666_"><g id="XMLID_667_"><g id="XMLID_684_"><g id="XMLID_685_"><g id="XMLID_686_"><g id="XMLID_687_"><g id="XMLID_688_"><g id="XMLID_1830_"><circle cx="256" cy="256" fill="#ffe705" r="256"/></g></g></g></g></g></g></g></g></g></g></g></g></g></g></g></g></g></g></g><path d="m512 256c0-31.99-5.885-62.6-16.602-90.832-33.155-33.124-59.883-59.818-59.883-59.818l-385.993 279.709 106.817 106.817c30.632 12.958 64.309 20.124 99.661 20.124 141.385 0 256-114.615 256-256z" fill="#ffb454"/><g><path d="m80.138 288.766h351.092v96.293h-351.092z" fill="#fff"/><path d="m255.68 288.77h175.55v96.29h-175.55z" fill="#ededed"/><g><g><g><path d="m119.019 291.608h30v93.451h-30z" fill="#e7f9fb"/></g></g><g><g><path d="m179.852 291.608h30v93.451h-30z" fill="#e7f9fb"/></g></g><g><path d="m134.019 294.424h30v46.726h-30z" fill="#00337a"/></g><g><g><path d="m240.684 291.608h30v93.451h-30z" fill="#e7f9fb"/></g></g><g><g><path d="m255.68 291.61h15v93.45h-15z" fill="#bceaf9"/></g></g><g><path d="m225.684 294.424h30v46.726h-30z" fill="#00337a"/></g><g><path d="m301.517 291.608h30v93.451h-30z" fill="#bceaf9"/></g><g><g><path d="m286.517 294.424h30v46.726h-30z" fill="#002659"/></g></g><g><path d="m362.349 291.608h30v93.451h-30z" fill="#bceaf9"/></g><g><g><path d="m347.349 294.424h30v46.726h-30z" fill="#002659"/></g></g></g><path d="m356.388 70.275h-11.495c-35.382 0-68.466 17.524-88.344 46.794-17.784 26.187-46.269 43.135-77.768 46.269l-33.045 3.288c-54.613 5.435-96.215 51.382-96.215 106.265v112.167h38.611v-89.938h336.434v89.938h38.611v-207.993c.001-58.978-47.811-106.79-106.789-106.79z" fill="#00337a"/><path d="m463.18 177.06v208h-38.61v-89.94h-168.89v-176.81c.3-.41.59-.82.87-1.24 19.88-29.27 52.96-46.79 88.34-46.79h11.5c58.98 0 106.79 47.81 106.79 106.78z" fill="#002659"/></g></g></svg>