<svg id="Capa_1" enable-background="new 0 0 512 512" height="512" viewBox="0 0 512 512" width="512" xmlns="http://www.w3.org/2000/svg" xmlns:xlink="http://www.w3.org/1999/xlink"><linearGradient id="SVGID_1_" gradientUnits="userSpaceOnUse" x1="74.981" x2="437.019" y1="74.981" y2="437.019"><stop offset="0" stop-color="#45c5ff"/><stop offset="1" stop-color="#0ca8ed"/></linearGradient><linearGradient id="SVGID_2_" gradientUnits="userSpaceOnUse" x1="139.706" x2="181.233" y1="330.767" y2="372.294"><stop offset="0" stop-color="#ffb54c"/><stop offset="1" stop-color="#ff9959"/></linearGradient><linearGradient id="SVGID_3_" gradientUnits="userSpaceOnUse" x1="243.893" x2="326.688" y1="185.312" y2="268.107"><stop offset="0" stop-color="#ff9959"/><stop offset="1" stop-color="#ff776b"/></linearGradient><g><circle cx="256" cy="256" fill="url(#SVGID_1_)" r="256"/><g><path d="m190.461 280.011-101.511 101.511 41.528 41.527 101.511-101.51z" fill="url(#SVGID_2_)"/><path d="m395.365 144.061-131.825 131.824c-7.543 7.543-20.092 7.746-27.838.413-7.333-7.746-7.13-20.296.413-27.838l131.824-131.824-27.685-27.685-159.796 159.796v53.69c0 8.109 3.027 15.19 8.341 20.504s12.655 8.601 20.764 8.601h53.69l159.797-159.796z" fill="url(#SVGID_3_)"/></g></g></svg>