<svg id="Capa_1" enable-background="new 0 0 512 512" height="512" viewBox="0 0 512 512" width="512" xmlns="http://www.w3.org/2000/svg" xmlns:xlink="http://www.w3.org/1999/xlink"><linearGradient id="SVGID_1_" gradientUnits="userSpaceOnUse" x1="74.981" x2="437.019" y1="74.981" y2="437.019"><stop offset="0" stop-color="#ffd959"/><stop offset="1" stop-color="#ffc40f"/></linearGradient><linearGradient id="SVGID_2_" gradientUnits="userSpaceOnUse" x1="90.881" x2="421.119" y1="179.876" y2="179.876"><stop offset="0" stop-color="#a4a6aa"/><stop offset="1" stop-color="#83878c"/></linearGradient><linearGradient id="SVGID_3_" gradientUnits="userSpaceOnUse" x1="246.325" x2="265.675" y1="337.239" y2="337.239"><stop offset="0" stop-color="#77fef4"/><stop offset="1" stop-color="#38e8db"/></linearGradient><g><circle cx="256" cy="256" fill="url(#SVGID_1_)" r="256"/><g><path d="m124.905 420.475c-18.76 0-34.023-15.262-34.023-34.023 0-6.354 1.77-12.559 5.118-17.943l28.905-46.758 28.913 46.77c3.343 5.382 5.11 11.583 5.11 17.931 0 18.761-15.263 34.023-34.023 34.023z" fill="#d4fffb"/><path d="m212.302 420.475c-18.761 0-34.023-15.262-34.023-34.023 0-6.354 1.77-12.559 5.118-17.943l28.905-46.758 28.913 46.77c3.343 5.382 5.11 11.583 5.11 17.931 0 18.761-15.263 34.023-34.023 34.023z" fill="#d4fffb"/><g fill="#77fef4"><path d="m299.698 420.475c-18.761 0-34.023-15.262-34.023-34.023 0-6.354 1.77-12.559 5.118-17.943l28.905-46.758 28.913 46.77c3.343 5.382 5.11 11.583 5.11 17.931.001 18.761-15.262 34.023-34.023 34.023z"/><path d="m387.095 420.475c-18.761 0-34.024-15.262-34.024-34.023 0-6.354 1.77-12.559 5.118-17.943l28.905-46.758 28.913 46.77c3.343 5.382 5.11 11.583 5.11 17.931.002 18.761-15.261 34.023-34.022 34.023z"/><path d="m158.928 327.564h19.35v19.35h-19.35z"/><path d="m182.277 288.865h19.35v19.35h-19.35z"/><path d="m135.579 288.865h19.35v19.35h-19.35z" transform="matrix(-1 0 0 -1 290.509 597.079)"/></g><path d="m333.722 327.564h19.35v19.35h-19.35z" fill="#38e8db" transform="matrix(-1 0 0 -1 686.794 674.478)"/><path d="m310.373 288.865h19.35v19.35h-19.35z" fill="#38e8db" transform="matrix(-1 0 0 -1 640.096 597.079)"/><path d="m357.071 288.865h19.35v19.35h-19.35z" fill="#38e8db"/><path d="m224.976 288.865h19.35v19.35h-19.35z" fill="#77fef4"/><path d="m267.674 288.865h19.35v19.35h-19.35z" fill="#38e8db"/><path d="m385.254 174.398c-6.264-25.629-29.342-44.17-56.37-44.17-1.66 0-3.326.072-4.989.217-13.492-24.651-39.384-40.207-67.895-40.207s-54.403 15.556-67.895 40.207c-1.663-.145-3.329-.217-4.989-.217-27.028 0-50.105 18.541-56.37 44.17-20.886 5.537-35.865 24.486-35.865 46.742 0 26.674 21.701 48.375 48.375 48.375h233.488c26.674 0 48.375-21.701 48.375-48.375 0-22.256-14.979-41.205-35.865-46.742z" fill="url(#SVGID_2_)"/><path d="m246.325 327.564h19.35v19.35h-19.35z" fill="url(#SVGID_3_)"/></g></g></svg>