<svg id="Layer_1" enable-background="new 0 0 512 512" height="512" viewBox="0 0 512 512" width="512" xmlns="http://www.w3.org/2000/svg"><g><g><g><g><g><g id="XMLID_1323_"><g id="XMLID_1324_"><g id="XMLID_1325_"><g id="XMLID_1326_"><g id="XMLID_1327_"><g id="XMLID_1409_"><g id="XMLID_1410_"><g id="XMLID_1411_"><g id="XMLID_1412_"><g id="XMLID_1413_"><g id="XMLID_1414_"><g id="XMLID_1415_"><g id="XMLID_1416_"><g id="XMLID_1552_"><g id="XMLID_1553_"><circle cx="256" cy="256" fill="#ec3d93" r="256"/></g></g></g></g></g></g></g></g></g></g></g></g></g></g></g></g></g></g></g><path d="m512 256c0-28.274-4.584-55.477-13.048-80.907l-103.468-103.467-278.972 347.824 32.395 32.395-4.407 3.96 48.346 48.346c20.201 5.125 41.359 7.849 63.154 7.849 141.385 0 256-114.615 256-256z" fill="#a733c1"/><g><path d="m144.5 413.571h222.995v42.234h-222.995z" fill="#00da80"/><path d="m255.998 413.57h111.5v42.23h-111.5z" fill="#00b4bc"/><path d="m116.512 71.626h278.972v347.824h-278.972z" fill="#ffe705"/><path d="m255.998 71.63h139.49v347.82h-139.49z" fill="#ffb454"/><ellipse cx="255.998" cy="245.538" fill="#00337a" rx="84.337" ry="84.337" transform="matrix(.707 -.707 .707 .707 -98.641 252.934)"/><path d="m340.338 245.54c0 46.58-37.76 84.33-84.34 84.33v-168.67c46.58 0 84.34 37.76 84.34 84.34z" fill="#002659"/><g><ellipse cx="162.52" cy="372.51" fill="#00429b" rx="15" ry="15" transform="matrix(.23 -.973 .973 .23 -237.365 445.097)"/><ellipse cx="349.476" cy="372.51" fill="#00337a" rx="15" ry="15" transform="matrix(.707 -.707 .707 .707 -161.045 356.222)"/></g><g><ellipse cx="162.52" cy="120.186" fill="#00429b" rx="15" ry="15" transform="matrix(.23 -.973 .973 .23 8.21 250.745)"/><ellipse cx="349.476" cy="120.186" fill="#00337a" rx="15" ry="15" transform="matrix(.707 -.707 .707 .707 17.375 282.318)"/></g></g></g></svg>