<svg xmlns="http://www.w3.org/2000/svg" xmlns:xlink="http://www.w3.org/1999/xlink" version="1.1" width="123" height="123" enable-background="new 0 0 123 123" xml:space="preserve" style=""><rect id="backgroundrect" width="100%" height="100%" x="0" y="0" fill="none" stroke="none"/><g class="currentLayer" style=""><title>Layer 1</title><g id="svg_1" class="selected" fill-opacity="1" fill="#77dd77"><path fill-rule="evenodd" clip-rule="evenodd" d="M61.44,0c33.932,0,61.44,27.508,61.44,61.44c0,33.932-27.508,61.439-61.44,61.439 C27.507,123,0,95.372,0,61.44C0,27.508,27.507,0,61.44,0L61.44,0z M34.258,63.075c0.824-4.78,6.28-7.44,10.584-4.851 c0.39,0.233,0.763,0.51,1.11,0.827l0.034,0.032c1.932,1.852,4.096,3.778,6.242,5.688l1.841,1.652l21.84-22.91 c1.304-1.366,2.259-2.25,4.216-2.689c6.701-1.478,11.412,6.712,6.663,11.719L59.565,81.108c-2.564,2.735-7.147,2.985-9.901,0.373 c-1.581-1.466-3.297-2.958-5.034-4.467c-3.007-2.613-6.077-5.28-8.577-7.919C34.551,67.595,33.903,65.139,34.258,63.075 L34.258,63.075z" id="svg_2" fill="#77dd77"/></g></g></svg>